M48
; DRILL file {KiCad 7.0.11+1} date jue 02 may 2024 20:53:03
; FORMAT={-:-/ absolute / inch / decimal}
; #@! TF.CreationDate,2024-05-02T20:53:03+02:00
; #@! TF.GenerationSoftware,Kicad,Pcbnew,7.0.11+1
; #@! TF.FileFunction,Plated,1,2,PTH
FMAT,2
INCH
; #@! TA.AperFunction,Plated,PTH,ComponentDrill
T1C0.0394
%
G90
G05
T1
X5.4187Y-2.695
X5.4187Y-2.795
X5.4187Y-2.895
X5.4187Y-2.995
X5.4187Y-3.095
X5.4187Y-3.195
X5.4187Y-3.295
X5.4187Y-3.395
X5.6187Y-2.295
X5.6187Y-2.395
X5.7187Y-2.295
X5.7187Y-2.395
X5.8187Y-2.295
X5.8187Y-2.395
X5.9187Y-2.295
X5.9187Y-2.395
X6.0187Y-2.295
X6.0187Y-2.395
X6.1187Y-2.295
X6.1187Y-2.395
X6.1187Y-3.305
X6.1187Y-3.405
X6.2187Y-2.295
X6.2187Y-2.395
X6.2187Y-3.305
X6.2187Y-3.405
X6.3187Y-2.295
X6.3187Y-2.395
X6.3187Y-3.305
X6.3187Y-3.405
X6.4187Y-2.295
X6.4187Y-2.395
X6.4187Y-3.305
X6.4187Y-3.405
X6.5187Y-2.295
X6.5187Y-2.395
X6.5187Y-3.305
X6.5187Y-3.405
X6.6187Y-2.295
X6.6187Y-2.395
X6.6187Y-3.305
X6.6187Y-3.405
X6.7187Y-2.295
X6.7187Y-2.395
X6.7187Y-3.305
X6.7187Y-3.405
X6.8187Y-2.295
X6.8187Y-2.395
X6.8187Y-3.305
X6.8187Y-3.405
X6.9187Y-2.295
X6.9187Y-2.395
X6.9187Y-3.305
X6.9187Y-3.405
X7.0187Y-2.295
X7.0187Y-2.395
X7.0187Y-3.305
X7.0187Y-3.405
X7.1187Y-2.295
X7.1187Y-2.395
X7.1187Y-3.305
X7.1187Y-3.405
X7.2187Y-2.295
X7.2187Y-2.395
X7.2187Y-3.305
X7.2187Y-3.405
X7.3187Y-2.295
X7.3187Y-2.395
X7.3187Y-3.305
X7.3187Y-3.405
X7.4187Y-2.295
X7.4187Y-2.395
X7.4187Y-3.305
X7.4187Y-3.405
X7.5187Y-2.295
X7.5187Y-2.395
X7.5187Y-3.305
X7.5187Y-3.405
X7.6187Y-2.295
X7.6187Y-2.395
X7.6187Y-3.305
X7.6187Y-3.405
X7.7187Y-2.295
X7.7187Y-2.395
X7.7187Y-3.305
X7.7187Y-3.405
X7.8187Y-2.295
X7.8187Y-2.395
X7.8187Y-3.305
X7.8187Y-3.405
X7.9187Y-2.295
X7.9187Y-2.395
X7.9187Y-3.305
X7.9187Y-3.405
X8.0187Y-2.295
X8.0187Y-2.395
X8.0187Y-3.305
X8.0187Y-3.405
X8.1187Y-2.295
X8.1187Y-2.395
X8.1187Y-3.305
X8.1187Y-3.405
X8.2187Y-2.295
X8.2187Y-2.395
X8.2187Y-3.305
X8.2187Y-3.405
X8.3187Y-2.295
X8.3187Y-2.395
X8.3187Y-3.305
X8.3187Y-3.405
X8.4187Y-2.295
X8.4187Y-2.395
X8.4187Y-3.305
X8.4187Y-3.405
X8.5187Y-2.295
X8.5187Y-2.395
X8.5187Y-3.305
X8.5187Y-3.405
X8.6187Y-2.295
X8.6187Y-2.395
X8.6187Y-3.305
X8.6187Y-3.405
X8.7187Y-2.295
X8.7187Y-2.395
X8.7187Y-3.305
X8.7187Y-3.405
X8.8187Y-3.305
X8.8187Y-3.405
X8.9187Y-3.305
X8.9187Y-3.405
X9.0187Y-3.305
X9.0187Y-3.405
X9.1187Y-3.305
X9.1187Y-3.405
X9.2187Y-3.305
X9.2187Y-3.405
M30
