%TF.GenerationSoftware,KiCad,Pcbnew,7.0.11+1*%
%TF.CreationDate,2024-05-02T20:53:06+02:00*%
%TF.ProjectId,Thor_20_backplane,54686f72-5f32-4305-9f62-61636b706c61,0.1*%
%TF.SameCoordinates,Original*%
%TF.FileFunction,Copper,L2,Bot*%
%TF.FilePolarity,Positive*%
%FSLAX46Y46*%
G04 Gerber Fmt 4.6, Leading zero omitted, Abs format (unit mm)*
G04 Created by KiCad (PCBNEW 7.0.11+1) date 2024-05-02 20:53:06*
%MOMM*%
%LPD*%
G01*
G04 APERTURE LIST*
G04 Aperture macros list*
%AMRoundRect*
0 Rectangle with rounded corners*
0 $1 Rounding radius*
0 $2 $3 $4 $5 $6 $7 $8 $9 X,Y pos of 4 corners*
0 Add a 4 corners polygon primitive as box body*
4,1,4,$2,$3,$4,$5,$6,$7,$8,$9,$2,$3,0*
0 Add four circle primitives for the rounded corners*
1,1,$1+$1,$2,$3*
1,1,$1+$1,$4,$5*
1,1,$1+$1,$6,$7*
1,1,$1+$1,$8,$9*
0 Add four rect primitives between the rounded corners*
20,1,$1+$1,$2,$3,$4,$5,0*
20,1,$1+$1,$4,$5,$6,$7,0*
20,1,$1+$1,$6,$7,$8,$9,0*
20,1,$1+$1,$8,$9,$2,$3,0*%
G04 Aperture macros list end*
%TA.AperFunction,NonConductor*%
%ADD10C,0.200000*%
%TD*%
%TA.AperFunction,NonConductor*%
%ADD11C,0.025400*%
%TD*%
%TA.AperFunction,NonConductor*%
%ADD12C,0.127000*%
%TD*%
%TA.AperFunction,ComponentPad*%
%ADD13RoundRect,0.249999X0.525001X-0.525001X0.525001X0.525001X-0.525001X0.525001X-0.525001X-0.525001X0*%
%TD*%
%TA.AperFunction,ComponentPad*%
%ADD14C,1.550000*%
%TD*%
%TA.AperFunction,ComponentPad*%
%ADD15R,1.700000X1.700000*%
%TD*%
%TA.AperFunction,ComponentPad*%
%ADD16O,1.700000X1.700000*%
%TD*%
%TA.AperFunction,Conductor*%
%ADD17C,1.270000*%
%TD*%
%TA.AperFunction,Conductor*%
%ADD18C,0.750000*%
%TD*%
G04 APERTURE END LIST*
D10*
X241014000Y-74041000D02*
X240252000Y-74041000D01*
X239363000Y-61722000D02*
X239363000Y-64643000D01*
X237458000Y-74676000D02*
X237204000Y-74422000D01*
X238982000Y-73406000D02*
X238982000Y-74676000D01*
X235426000Y-72390000D02*
X235426000Y-71120000D01*
X237458000Y-73406000D02*
X237966000Y-73406000D01*
X232378000Y-74676000D02*
X231870000Y-74676000D01*
X231362000Y-74676000D02*
X230600000Y-74676000D01*
X237966000Y-72390000D02*
X237204000Y-72390000D01*
X238982000Y-71120000D02*
X238982000Y-71755000D01*
X235934000Y-73406000D02*
X235934000Y-74676000D01*
X232886000Y-71120000D02*
X232886000Y-71755000D01*
X235172000Y-73406000D02*
X235172000Y-74041000D01*
X232759000Y-69596000D02*
X234918000Y-69596000D01*
X232187500Y-61722000D02*
X232187500Y-64643000D01*
X232886000Y-71755000D02*
X232124000Y-71755000D01*
X232759000Y-66675000D02*
X232759000Y-69596000D01*
X239998000Y-73406000D02*
X239998000Y-74676000D01*
X234918000Y-66675000D02*
X232759000Y-66675000D01*
X231997000Y-66675000D02*
X229838000Y-66675000D01*
X231108000Y-72390000D02*
X231108000Y-71120000D01*
X240252000Y-74676000D02*
X241014000Y-74676000D01*
X235553000Y-74041000D02*
X235172000Y-74676000D01*
X241014000Y-66675000D02*
X238855000Y-66675000D01*
X233267000Y-61722000D02*
X231108000Y-61722000D01*
X238220000Y-72390000D02*
X238982000Y-72390000D01*
X234918000Y-69596000D02*
X234918000Y-66675000D01*
X237204000Y-72390000D02*
X237204000Y-71120000D01*
X237204000Y-61722000D02*
X239363000Y-61722000D01*
X230600000Y-73406000D02*
X231362000Y-73406000D01*
X237966000Y-73406000D02*
X237966000Y-74676000D01*
X237966000Y-74676000D02*
X237458000Y-74676000D01*
X239236000Y-71755000D02*
X239236000Y-72390000D01*
X239236000Y-72390000D02*
X239998000Y-72390000D01*
X236950000Y-71120000D02*
X236950000Y-72390000D01*
X231997000Y-69596000D02*
X231997000Y-66675000D01*
X240252000Y-73406000D02*
X241014000Y-73406000D01*
X238220000Y-71755000D02*
X238220000Y-72390000D01*
D11*
X234410000Y-68260097D02*
X233648000Y-68260097D01*
X233902000Y-70038097D01*
X233140000Y-67879097D01*
X233902000Y-67879097D01*
X233394000Y-66228097D01*
X234156000Y-66228097D01*
X234410000Y-68260097D01*
%TA.AperFunction,NonConductor*%
G36*
X234410000Y-68260097D02*
G01*
X233648000Y-68260097D01*
X233902000Y-70038097D01*
X233140000Y-67879097D01*
X233902000Y-67879097D01*
X233394000Y-66228097D01*
X234156000Y-66228097D01*
X234410000Y-68260097D01*
G37*
%TD.AperFunction*%
D10*
X236950000Y-74041000D02*
X236188000Y-74041000D01*
X239934500Y-66675000D02*
X239934500Y-69596000D01*
X239998000Y-71755000D02*
X239236000Y-71755000D01*
X239236000Y-71120000D02*
X239998000Y-71120000D01*
X240252000Y-74041000D02*
X240252000Y-74676000D01*
X231870000Y-73406000D02*
X232378000Y-73406000D01*
X239236000Y-73406000D02*
X239998000Y-73406000D01*
X231362000Y-74041000D02*
X230600000Y-74041000D01*
X237204000Y-74422000D02*
X237204000Y-73660000D01*
X236950000Y-72390000D02*
X236188000Y-72390000D01*
X232124000Y-71120000D02*
X232886000Y-71120000D01*
X233648000Y-74041000D02*
X233648000Y-74676000D01*
X232378000Y-73406000D02*
X232378000Y-74676000D01*
X230092000Y-72390000D02*
X230092000Y-71755000D01*
X235807000Y-66675000D02*
X235807000Y-69596000D01*
X236315000Y-61722000D02*
X236315000Y-63246000D01*
X241014000Y-73406000D02*
X241014000Y-74041000D01*
X230854000Y-71120000D02*
X230854000Y-72390000D01*
X233648000Y-73406000D02*
X234410000Y-73406000D01*
X239998000Y-71120000D02*
X239998000Y-71755000D01*
X239998000Y-74676000D02*
X239236000Y-74676000D01*
X236950000Y-71755000D02*
X236188000Y-71755000D01*
X236950000Y-74676000D02*
X236188000Y-74676000D01*
X239236000Y-74676000D02*
X239236000Y-73406000D01*
X236950000Y-73406000D02*
X236950000Y-74676000D01*
X239363000Y-64643000D02*
X237204000Y-64643000D01*
X234410000Y-74041000D02*
X233648000Y-74041000D01*
X234156000Y-64643000D02*
X236315000Y-64643000D01*
X229838000Y-66675000D02*
X229838000Y-68072000D01*
X233648000Y-74676000D02*
X234410000Y-74676000D01*
X235934000Y-74041000D02*
X235172000Y-74041000D01*
X231362000Y-73406000D02*
X231362000Y-74676000D01*
X237204000Y-73660000D02*
X237458000Y-73406000D01*
X229838000Y-68072000D02*
X231997000Y-68072000D01*
X238982000Y-71755000D02*
X238220000Y-71755000D01*
X231870000Y-71755000D02*
X231108000Y-71755000D01*
X230854000Y-72390000D02*
X230092000Y-72390000D01*
X237966000Y-66675000D02*
X237966000Y-69596000D01*
X238220000Y-71120000D02*
X238982000Y-71120000D01*
X231870000Y-74676000D02*
X231616000Y-74422000D01*
D12*
X240506000Y-71120000D02*
X240506000Y-72390000D01*
D10*
X232886000Y-74676000D02*
X232886000Y-73406000D01*
X237966000Y-71120000D02*
X237966000Y-72390000D01*
X233394000Y-72390000D02*
X233394000Y-71120000D01*
X231108000Y-71120000D02*
X231870000Y-71120000D01*
X231870000Y-71120000D02*
X231870000Y-72390000D01*
X234410000Y-73406000D02*
X234410000Y-74041000D01*
X231616000Y-73660000D02*
X231870000Y-73406000D01*
X231616000Y-74422000D02*
X231616000Y-73660000D01*
X234156000Y-63246000D02*
X234156000Y-64643000D01*
X238982000Y-74676000D02*
X238220000Y-74676000D01*
X235172000Y-73406000D02*
X235934000Y-73406000D01*
X232124000Y-72390000D02*
X232124000Y-71120000D01*
X236188000Y-73406000D02*
X236950000Y-73406000D01*
X230092000Y-71755000D02*
X230854000Y-71755000D01*
X236188000Y-71120000D02*
X236950000Y-71120000D01*
X234156000Y-61722000D02*
X236315000Y-61722000D01*
X229838000Y-69596000D02*
X230600000Y-68072000D01*
X237966000Y-68135500D02*
X235807000Y-68135500D01*
X231870000Y-72390000D02*
X231108000Y-72390000D01*
X236315000Y-63246000D02*
X234156000Y-63246000D01*
D13*
%TO.P,J4,a1,GND*%
%TO.N,+9V*%
X221456000Y-60833000D03*
D14*
%TO.P,J4,a2,D3*%
%TO.N,unconnected-(J4-D3-Pada2)*%
X218916000Y-60833000D03*
%TO.P,J4,a3,D4*%
%TO.N,unconnected-(J4-D4-Pada3)*%
X216376000Y-60833000D03*
%TO.P,J4,a4,D5*%
%TO.N,/SP0*%
X213836000Y-60833000D03*
%TO.P,J4,a5,D6*%
%TO.N,/SP1*%
X211296000Y-60833000D03*
%TO.P,J4,a6,D7*%
%TO.N,/DSMC*%
X208756000Y-60833000D03*
%TO.P,J4,a7,A19*%
%TO.N,/SP2*%
X206216000Y-60833000D03*
%TO.P,J4,a8,A18*%
%TO.N,/DBG*%
X203676000Y-60833000D03*
%TO.P,J4,a9,A17*%
%TO.N,/A3*%
X201136000Y-60833000D03*
%TO.P,J4,a10,A16*%
%TO.N,/A4*%
X198596000Y-60833000D03*
%TO.P,J4,a11,CLKCPU*%
%TO.N,/A5*%
X196056000Y-60833000D03*
%TO.P,J4,a12,RED*%
%TO.N,/A6*%
X193516000Y-60833000D03*
%TO.P,J4,a13,A14*%
%TO.N,/A7*%
X190976000Y-60833000D03*
%TO.P,J4,a14,A13*%
%TO.N,/A8*%
X188436000Y-60833000D03*
%TO.P,J4,a15,A12*%
%TO.N,/A9*%
X185896000Y-60833000D03*
%TO.P,J4,a16,A11*%
%TO.N,/A10*%
X183356000Y-60833000D03*
%TO.P,J4,a17,A10*%
%TO.N,/A11*%
X180816000Y-60833000D03*
%TO.P,J4,a18,A9*%
%TO.N,/A12*%
X178276000Y-60833000D03*
%TO.P,J4,a19,A8*%
%TO.N,/A13*%
X175736000Y-60833000D03*
%TO.P,J4,a20,A7*%
%TO.N,/A14*%
X173196000Y-60833000D03*
%TO.P,J4,a21,A6*%
%TO.N,/RED*%
X170656000Y-60833000D03*
%TO.P,J4,a22,A5*%
%TO.N,/CLKCPU*%
X168116000Y-60833000D03*
%TO.P,J4,a23,A4*%
%TO.N,/A16*%
X165576000Y-60833000D03*
%TO.P,J4,a24,A3*%
%TO.N,/A17*%
X163036000Y-60833000D03*
%TO.P,J4,a25,~{DBG}*%
%TO.N,/A18*%
X160496000Y-60833000D03*
%TO.P,J4,a26,SP2*%
%TO.N,/A19*%
X157956000Y-60833000D03*
%TO.P,J4,a27,~{DSMC}*%
%TO.N,/D7*%
X155416000Y-60833000D03*
%TO.P,J4,a28,SP1*%
%TO.N,/D6*%
X152876000Y-60833000D03*
%TO.P,J4,a29,SP0*%
%TO.N,/D5*%
X150336000Y-60833000D03*
%TO.P,J4,a30,+12V*%
%TO.N,/D4*%
X147796000Y-60833000D03*
%TO.P,J4,a31,-12V*%
%TO.N,/D3*%
X145256000Y-60833000D03*
%TO.P,J4,a32,Vin*%
%TO.N,GND*%
X142716000Y-60833000D03*
%TO.P,J4,b1,GND*%
%TO.N,+9V*%
X221456000Y-58293000D03*
%TO.P,J4,b2,D2*%
X218916000Y-58293000D03*
%TO.P,J4,b3,D1*%
%TO.N,/EXTINT*%
X216376000Y-58293000D03*
%TO.P,J4,b4,D0*%
%TO.N,/IPL1*%
X213836000Y-58293000D03*
%TO.P,J4,b5,~{AS}*%
%TO.N,/BERR*%
X211296000Y-58293000D03*
%TO.P,J4,b6,~{DS}*%
%TO.N,/IPL0*%
X208756000Y-58293000D03*
%TO.P,J4,b7,~{DRW}*%
%TO.N,/SP3*%
X206216000Y-58293000D03*
%TO.P,J4,b8,~{DTACK}*%
%TO.N,/A2*%
X203676000Y-58293000D03*
%TO.P,J4,b9,~{BG}*%
%TO.N,/A1*%
X201136000Y-58293000D03*
%TO.P,J4,b10,~{BR}*%
%TO.N,/ROMOE*%
X198596000Y-58293000D03*
%TO.P,J4,b11,A15*%
%TO.N,/A0*%
X196056000Y-58293000D03*
%TO.P,J4,b12,~{RESETCPU}*%
%TO.N,/FC0*%
X193516000Y-58293000D03*
%TO.P,J4,b13,~{CSYNC}*%
%TO.N,/FC1*%
X190976000Y-58293000D03*
%TO.P,J4,b14,E*%
%TO.N,/FC2*%
X188436000Y-58293000D03*
%TO.P,J4,b15,VSYNCH*%
%TO.N,/BLUE*%
X185896000Y-58293000D03*
%TO.P,J4,b16,~{VPA}*%
%TO.N,/GREEN*%
X183356000Y-58293000D03*
%TO.P,J4,b17,GREEN*%
%TO.N,/VPA*%
X180816000Y-58293000D03*
%TO.P,J4,b18,BLUE*%
%TO.N,/VSYNC*%
X178276000Y-58293000D03*
%TO.P,J4,b19,FC2*%
%TO.N,/E*%
X175736000Y-58293000D03*
%TO.P,J4,b20,FC1*%
%TO.N,/CSYNC*%
X173196000Y-58293000D03*
%TO.P,J4,b21,FC0*%
%TO.N,/RESET*%
X170656000Y-58293000D03*
%TO.P,J4,b22,A0*%
%TO.N,/A15*%
X168116000Y-58293000D03*
%TO.P,J4,b23,ROMOEH*%
%TO.N,/BR*%
X165576000Y-58293000D03*
%TO.P,J4,b24,A1*%
%TO.N,/BG*%
X163036000Y-58293000D03*
%TO.P,J4,b25,A2*%
%TO.N,/DTACK*%
X160496000Y-58293000D03*
%TO.P,J4,b26,SP3*%
%TO.N,/RW*%
X157956000Y-58293000D03*
%TO.P,J4,b27,~{IPLO}*%
%TO.N,/DS*%
X155416000Y-58293000D03*
%TO.P,J4,b28,~{BERR}*%
%TO.N,/AS*%
X152876000Y-58293000D03*
%TO.P,J4,b29,~{IPL1}*%
%TO.N,/D0*%
X150336000Y-58293000D03*
%TO.P,J4,b30,~{EXTINT}*%
%TO.N,/D1*%
X147796000Y-58293000D03*
%TO.P,J4,b31,Vin*%
%TO.N,/D2*%
X145256000Y-58293000D03*
%TO.P,J4,b32,Vin*%
%TO.N,GND*%
X142716000Y-58293000D03*
%TD*%
D13*
%TO.P,J3,a1,GND*%
%TO.N,+9V*%
X234156000Y-86487000D03*
D14*
%TO.P,J3,a2,D3*%
%TO.N,-12V*%
X231616000Y-86487000D03*
%TO.P,J3,a3,D4*%
%TO.N,+12V*%
X229076000Y-86487000D03*
%TO.P,J3,a4,D5*%
%TO.N,/SP0*%
X226536000Y-86487000D03*
%TO.P,J3,a5,D6*%
%TO.N,/SP1*%
X223996000Y-86487000D03*
%TO.P,J3,a6,D7*%
%TO.N,/DSMC*%
X221456000Y-86487000D03*
%TO.P,J3,a7,A19*%
%TO.N,/SP2*%
X218916000Y-86487000D03*
%TO.P,J3,a8,A18*%
%TO.N,/DBG*%
X216376000Y-86487000D03*
%TO.P,J3,a9,A17*%
%TO.N,/A3*%
X213836000Y-86487000D03*
%TO.P,J3,a10,A16*%
%TO.N,/A4*%
X211296000Y-86487000D03*
%TO.P,J3,a11,CLKCPU*%
%TO.N,/A5*%
X208756000Y-86487000D03*
%TO.P,J3,a12,RED*%
%TO.N,/A6*%
X206216000Y-86487000D03*
%TO.P,J3,a13,A14*%
%TO.N,/A7*%
X203676000Y-86487000D03*
%TO.P,J3,a14,A13*%
%TO.N,/A8*%
X201136000Y-86487000D03*
%TO.P,J3,a15,A12*%
%TO.N,/A9*%
X198596000Y-86487000D03*
%TO.P,J3,a16,A11*%
%TO.N,/A10*%
X196056000Y-86487000D03*
%TO.P,J3,a17,A10*%
%TO.N,/A11*%
X193516000Y-86487000D03*
%TO.P,J3,a18,A9*%
%TO.N,/A12*%
X190976000Y-86487000D03*
%TO.P,J3,a19,A8*%
%TO.N,/A13*%
X188436000Y-86487000D03*
%TO.P,J3,a20,A7*%
%TO.N,/A14*%
X185896000Y-86487000D03*
%TO.P,J3,a21,A6*%
%TO.N,/RED*%
X183356000Y-86487000D03*
%TO.P,J3,a22,A5*%
%TO.N,/CLKCPU*%
X180816000Y-86487000D03*
%TO.P,J3,a23,A4*%
%TO.N,/A16*%
X178276000Y-86487000D03*
%TO.P,J3,a24,A3*%
%TO.N,/A17*%
X175736000Y-86487000D03*
%TO.P,J3,a25,~{DBG}*%
%TO.N,/A18*%
X173196000Y-86487000D03*
%TO.P,J3,a26,SP2*%
%TO.N,/A19*%
X170656000Y-86487000D03*
%TO.P,J3,a27,~{DSMC}*%
%TO.N,/D7*%
X168116000Y-86487000D03*
%TO.P,J3,a28,SP1*%
%TO.N,/D6*%
X165576000Y-86487000D03*
%TO.P,J3,a29,SP0*%
%TO.N,/D5*%
X163036000Y-86487000D03*
%TO.P,J3,a30,+12V*%
%TO.N,/D4*%
X160496000Y-86487000D03*
%TO.P,J3,a31,-12V*%
%TO.N,/D3*%
X157956000Y-86487000D03*
%TO.P,J3,a32,Vin*%
%TO.N,GND*%
X155416000Y-86487000D03*
%TO.P,J3,b1,GND*%
%TO.N,+9V*%
X234156000Y-83947000D03*
%TO.P,J3,b2,D2*%
X231616000Y-83947000D03*
%TO.P,J3,b3,D1*%
%TO.N,/EXTINT*%
X229076000Y-83947000D03*
%TO.P,J3,b4,D0*%
%TO.N,/IPL1*%
X226536000Y-83947000D03*
%TO.P,J3,b5,~{AS}*%
%TO.N,/BERR*%
X223996000Y-83947000D03*
%TO.P,J3,b6,~{DS}*%
%TO.N,/IPL0*%
X221456000Y-83947000D03*
%TO.P,J3,b7,~{DRW}*%
%TO.N,/SP3*%
X218916000Y-83947000D03*
%TO.P,J3,b8,~{DTACK}*%
%TO.N,/A2*%
X216376000Y-83947000D03*
%TO.P,J3,b9,~{BG}*%
%TO.N,/A1*%
X213836000Y-83947000D03*
%TO.P,J3,b10,~{BR}*%
%TO.N,/ROMOE*%
X211296000Y-83947000D03*
%TO.P,J3,b11,A15*%
%TO.N,/A0*%
X208756000Y-83947000D03*
%TO.P,J3,b12,~{RESETCPU}*%
%TO.N,/FC0*%
X206216000Y-83947000D03*
%TO.P,J3,b13,~{CSYNC}*%
%TO.N,/FC1*%
X203676000Y-83947000D03*
%TO.P,J3,b14,E*%
%TO.N,/FC2*%
X201136000Y-83947000D03*
%TO.P,J3,b15,VSYNCH*%
%TO.N,/BLUE*%
X198596000Y-83947000D03*
%TO.P,J3,b16,~{VPA}*%
%TO.N,/GREEN*%
X196056000Y-83947000D03*
%TO.P,J3,b17,GREEN*%
%TO.N,/VPA*%
X193516000Y-83947000D03*
%TO.P,J3,b18,BLUE*%
%TO.N,/VSYNC*%
X190976000Y-83947000D03*
%TO.P,J3,b19,FC2*%
%TO.N,/E*%
X188436000Y-83947000D03*
%TO.P,J3,b20,FC1*%
%TO.N,/CSYNC*%
X185896000Y-83947000D03*
%TO.P,J3,b21,FC0*%
%TO.N,/RESET*%
X183356000Y-83947000D03*
%TO.P,J3,b22,A0*%
%TO.N,/A15*%
X180816000Y-83947000D03*
%TO.P,J3,b23,ROMOEH*%
%TO.N,/BR*%
X178276000Y-83947000D03*
%TO.P,J3,b24,A1*%
%TO.N,/BG*%
X175736000Y-83947000D03*
%TO.P,J3,b25,A2*%
%TO.N,/DTACK*%
X173196000Y-83947000D03*
%TO.P,J3,b26,SP3*%
%TO.N,/RW*%
X170656000Y-83947000D03*
%TO.P,J3,b27,~{IPLO}*%
%TO.N,/DS*%
X168116000Y-83947000D03*
%TO.P,J3,b28,~{BERR}*%
%TO.N,/AS*%
X165576000Y-83947000D03*
%TO.P,J3,b29,~{IPL1}*%
%TO.N,/D0*%
X163036000Y-83947000D03*
%TO.P,J3,b30,~{EXTINT}*%
%TO.N,/D1*%
X160496000Y-83947000D03*
%TO.P,J3,b31,Vin*%
%TO.N,/D2*%
X157956000Y-83947000D03*
%TO.P,J3,b32,Vin*%
%TO.N,GND*%
X155416000Y-83947000D03*
%TD*%
D15*
%TO.P,P8,1,Pin_1*%
%TO.N,+9V*%
X137636000Y-68453000D03*
D16*
%TO.P,P8,2,Pin_2*%
X137636000Y-70993000D03*
%TO.P,P8,3,Pin_3*%
%TO.N,GND*%
X137636000Y-73533000D03*
%TO.P,P8,4,Pin_4*%
X137636000Y-76073000D03*
%TO.P,P8,5,Pin_5*%
%TO.N,+12V*%
X137636000Y-78613000D03*
%TO.P,P8,6,Pin_6*%
X137636000Y-81153000D03*
%TO.P,P8,7,Pin_7*%
%TO.N,-12V*%
X137636000Y-83693000D03*
%TO.P,P8,8,Pin_8*%
X137636000Y-86233000D03*
%TD*%
D17*
%TO.N,+9V*%
X137636000Y-70993000D02*
X137636000Y-61087000D01*
X142970000Y-55753000D02*
X216376000Y-55753000D01*
X137636000Y-61087000D02*
X142970000Y-55753000D01*
X234156000Y-86487000D02*
X234156000Y-83947000D01*
X221456000Y-60833000D02*
X234156000Y-83947000D01*
X218916000Y-58293000D02*
X221456000Y-58293000D01*
X231616000Y-83947000D02*
X234156000Y-83947000D01*
X231616000Y-83947000D02*
X234156000Y-86487000D01*
X221456000Y-60833000D02*
X221456000Y-58293000D01*
X216376000Y-55753000D02*
X218916000Y-58293000D01*
X221456000Y-60833000D02*
X218916000Y-58293000D01*
D18*
%TO.N,GND*%
X142716000Y-58247000D02*
X142716000Y-60787000D01*
X155416000Y-83947000D02*
X155416000Y-86487000D01*
D17*
%TO.N,+12V*%
X137636000Y-79883000D02*
X137636000Y-78613000D01*
X137636000Y-81153000D02*
X137636000Y-79883000D01*
X227298000Y-88265000D02*
X147288000Y-88265000D01*
X147288000Y-88265000D02*
X138906000Y-79883000D01*
X229076000Y-86487000D02*
X227298000Y-88265000D01*
X138906000Y-79883000D02*
X137636000Y-79883000D01*
%TO.N,-12V*%
X137636000Y-84963000D02*
X138906000Y-84963000D01*
X138906000Y-84963000D02*
X144240000Y-90297000D01*
X144240000Y-90297000D02*
X227806000Y-90297000D01*
X227806000Y-90297000D02*
X231616000Y-86487000D01*
X137636000Y-84963000D02*
X137636000Y-86233000D01*
X137636000Y-83693000D02*
X137636000Y-84963000D01*
%TD*%
%TA.AperFunction,Conductor*%
%TO.N,GND*%
G36*
X142256507Y-58502844D02*
G01*
X142334239Y-58623798D01*
X142442900Y-58717952D01*
X142573685Y-58777680D01*
X142583464Y-58779086D01*
X142008476Y-59354074D01*
X142008477Y-59354075D01*
X142076061Y-59401397D01*
X142181614Y-59450618D01*
X142234053Y-59496790D01*
X142253205Y-59563984D01*
X142232989Y-59630865D01*
X142181614Y-59675382D01*
X142076065Y-59724600D01*
X142008477Y-59771924D01*
X142583466Y-60346913D01*
X142573685Y-60348320D01*
X142442900Y-60408048D01*
X142334239Y-60502202D01*
X142256507Y-60623156D01*
X142232923Y-60703476D01*
X141654924Y-60125477D01*
X141607598Y-60193066D01*
X141513318Y-60395252D01*
X141513314Y-60395263D01*
X141455574Y-60610751D01*
X141455573Y-60610758D01*
X141436130Y-60832998D01*
X141436130Y-60833001D01*
X141455573Y-61055241D01*
X141455574Y-61055248D01*
X141513314Y-61270736D01*
X141513318Y-61270747D01*
X141607600Y-61472935D01*
X141607601Y-61472937D01*
X141654923Y-61540521D01*
X141654924Y-61540522D01*
X142232923Y-60962523D01*
X142256507Y-61042844D01*
X142334239Y-61163798D01*
X142442900Y-61257952D01*
X142573685Y-61317680D01*
X142583466Y-61319086D01*
X142008476Y-61894074D01*
X142008477Y-61894075D01*
X142076062Y-61941398D01*
X142076064Y-61941399D01*
X142278252Y-62035681D01*
X142278263Y-62035685D01*
X142493751Y-62093425D01*
X142493758Y-62093426D01*
X142715998Y-62112870D01*
X142716002Y-62112870D01*
X142938241Y-62093426D01*
X142938248Y-62093425D01*
X143153736Y-62035685D01*
X143153747Y-62035681D01*
X143355931Y-61941401D01*
X143355933Y-61941400D01*
X143423522Y-61894074D01*
X142848533Y-61319086D01*
X142858315Y-61317680D01*
X142989100Y-61257952D01*
X143097761Y-61163798D01*
X143175493Y-61042844D01*
X143199076Y-60962523D01*
X143616763Y-61380210D01*
X143712753Y-61700177D01*
X143712753Y-61700178D01*
X143712752Y-61700180D01*
X143985999Y-62610999D01*
X143986000Y-62611000D01*
X220111570Y-62864751D01*
X220178541Y-62884659D01*
X220220782Y-62930804D01*
X229545994Y-80573098D01*
X229559919Y-80641566D01*
X229534617Y-80706693D01*
X229533194Y-80708506D01*
X228605230Y-81868462D01*
X228547980Y-81908514D01*
X228508402Y-81915000D01*
X156940000Y-81915000D01*
X156356698Y-82887166D01*
X156305327Y-82934524D01*
X156236507Y-82946591D01*
X156179246Y-82924943D01*
X156055939Y-82838602D01*
X156055931Y-82838598D01*
X155853747Y-82744318D01*
X155853736Y-82744314D01*
X155638248Y-82686574D01*
X155638241Y-82686573D01*
X155416002Y-82667130D01*
X155415998Y-82667130D01*
X155193758Y-82686573D01*
X155193751Y-82686574D01*
X154978263Y-82744314D01*
X154978252Y-82744318D01*
X154776066Y-82838598D01*
X154708477Y-82885924D01*
X155283466Y-83460913D01*
X155273685Y-83462320D01*
X155142900Y-83522048D01*
X155034239Y-83616202D01*
X154956507Y-83737156D01*
X154932923Y-83817476D01*
X154354924Y-83239477D01*
X154307598Y-83307066D01*
X154213318Y-83509252D01*
X154213314Y-83509263D01*
X154155574Y-83724751D01*
X154155573Y-83724758D01*
X154136130Y-83946998D01*
X154136130Y-83947001D01*
X154155573Y-84169241D01*
X154155574Y-84169248D01*
X154213314Y-84384736D01*
X154213318Y-84384747D01*
X154307600Y-84586935D01*
X154307601Y-84586937D01*
X154354923Y-84654521D01*
X154354924Y-84654522D01*
X154932923Y-84076523D01*
X154956507Y-84156844D01*
X155034239Y-84277798D01*
X155142900Y-84371952D01*
X155273685Y-84431680D01*
X155283464Y-84433086D01*
X154708476Y-85008074D01*
X154708477Y-85008075D01*
X154776061Y-85055397D01*
X154881614Y-85104618D01*
X154934053Y-85150790D01*
X154953205Y-85217984D01*
X154932989Y-85284865D01*
X154881614Y-85329382D01*
X154776065Y-85378600D01*
X154708477Y-85425924D01*
X155283466Y-86000913D01*
X155273685Y-86002320D01*
X155142900Y-86062048D01*
X155034239Y-86156202D01*
X154956507Y-86277156D01*
X154932923Y-86357476D01*
X154354924Y-85779477D01*
X154307598Y-85847066D01*
X154213318Y-86049252D01*
X154213314Y-86049263D01*
X154155574Y-86264751D01*
X154155573Y-86264758D01*
X154136130Y-86486998D01*
X154136130Y-86487001D01*
X154155573Y-86709241D01*
X154155575Y-86709252D01*
X154190316Y-86838907D01*
X154188653Y-86908757D01*
X154149490Y-86966619D01*
X154085262Y-86994123D01*
X154070541Y-86995000D01*
X149619169Y-86995000D01*
X149552130Y-86975315D01*
X149539413Y-86965947D01*
X148937859Y-86460642D01*
X147594182Y-85331953D01*
X146577267Y-84477744D01*
X151669183Y-84477744D01*
X153148717Y-85331953D01*
X153170093Y-85286114D01*
X153172486Y-85281261D01*
X153193036Y-85241785D01*
X153195637Y-85237044D01*
X153207208Y-85217000D01*
X153195617Y-85196921D01*
X153193018Y-85192182D01*
X153172480Y-85152727D01*
X153170088Y-85147876D01*
X153052429Y-84895553D01*
X153050252Y-84890606D01*
X153033227Y-84849508D01*
X153031266Y-84844466D01*
X153012336Y-84792463D01*
X153010596Y-84787338D01*
X152997202Y-84744861D01*
X152995687Y-84739665D01*
X152923617Y-84470699D01*
X152922331Y-84465443D01*
X152912695Y-84421977D01*
X152911639Y-84416667D01*
X152902031Y-84362167D01*
X152901209Y-84356824D01*
X152895400Y-84312700D01*
X152894811Y-84307322D01*
X152870544Y-84029949D01*
X152870190Y-84024552D01*
X152868248Y-83980081D01*
X152868130Y-83974671D01*
X152868130Y-83919329D01*
X152868248Y-83913919D01*
X152870190Y-83869448D01*
X152870544Y-83864051D01*
X152894811Y-83586678D01*
X152895400Y-83581300D01*
X152901209Y-83537176D01*
X152902031Y-83531833D01*
X152911639Y-83477333D01*
X152912695Y-83472023D01*
X152922331Y-83428557D01*
X152923617Y-83423301D01*
X152995687Y-83154335D01*
X152997202Y-83149139D01*
X153010596Y-83106662D01*
X153012336Y-83101537D01*
X153027477Y-83059941D01*
X152622684Y-82826233D01*
X151669183Y-84477744D01*
X146577267Y-84477744D01*
X144687386Y-82890244D01*
X148919552Y-82890244D01*
X150571063Y-83843745D01*
X151524564Y-82192234D01*
X150720683Y-81728113D01*
X153256683Y-81728113D01*
X153747380Y-82011417D01*
X153748595Y-82010092D01*
X154071454Y-81784032D01*
X154075954Y-81781026D01*
X154113497Y-81757110D01*
X154118121Y-81754304D01*
X154166044Y-81726637D01*
X154170785Y-81724036D01*
X154210261Y-81703486D01*
X154215114Y-81701093D01*
X154467447Y-81583429D01*
X154472394Y-81581252D01*
X154513492Y-81564227D01*
X154518534Y-81562266D01*
X154570537Y-81543336D01*
X154575662Y-81541596D01*
X154618139Y-81528202D01*
X154623335Y-81526687D01*
X154892301Y-81454617D01*
X154897557Y-81453331D01*
X154941023Y-81443695D01*
X154946333Y-81442639D01*
X155000833Y-81433031D01*
X155006176Y-81432209D01*
X155050300Y-81426400D01*
X155055678Y-81425811D01*
X155333051Y-81401544D01*
X155338448Y-81401190D01*
X155382919Y-81399248D01*
X155388329Y-81399130D01*
X155443671Y-81399130D01*
X155449081Y-81399248D01*
X155493552Y-81401190D01*
X155498949Y-81401544D01*
X155616247Y-81411805D01*
X155849494Y-81023059D01*
X154979902Y-80521000D01*
X157619786Y-80521000D01*
X159821801Y-80521000D01*
X164952134Y-80521000D01*
X167154149Y-80521000D01*
X167285587Y-80293342D01*
X166481706Y-79829221D01*
X169017706Y-79829221D01*
X170215901Y-80521000D01*
X170820322Y-80521000D01*
X170974133Y-80254591D01*
X176104467Y-80254591D01*
X176565900Y-80521000D01*
X178152672Y-80521000D01*
X183283005Y-80521000D01*
X185485020Y-80521000D01*
X190615354Y-80521000D01*
X192817368Y-80521000D01*
X192883000Y-80407320D01*
X192079120Y-79943199D01*
X194615120Y-79943199D01*
X195615900Y-80521000D01*
X196483543Y-80521000D01*
X196571550Y-80368568D01*
X201701882Y-80368568D01*
X201965901Y-80521000D01*
X203815890Y-80521000D01*
X208946224Y-80521000D01*
X211148240Y-80521000D01*
X211393655Y-80095928D01*
X210589774Y-79631807D01*
X213125774Y-79631807D01*
X214665900Y-80521000D01*
X214814413Y-80521000D01*
X216278573Y-80521000D01*
X218479901Y-80521000D01*
X217676535Y-80057176D01*
X220212535Y-80057176D01*
X221015901Y-80521000D01*
X222146762Y-80521000D01*
X222817547Y-79359166D01*
X222013668Y-78895046D01*
X224549666Y-78895046D01*
X226201176Y-79848546D01*
X226924265Y-78596119D01*
X226519476Y-77830302D01*
X225503167Y-77243535D01*
X224549666Y-78895046D01*
X222013668Y-78895046D01*
X221166036Y-78405665D01*
X220212535Y-80057176D01*
X217676535Y-80057176D01*
X216828905Y-79567796D01*
X216278573Y-80521000D01*
X214814413Y-80521000D01*
X215730785Y-78933797D01*
X214926905Y-78469676D01*
X217462904Y-78469676D01*
X219114415Y-79423177D01*
X220067916Y-77771666D01*
X219264037Y-77307546D01*
X221800035Y-77307546D01*
X223451546Y-78261047D01*
X224405047Y-76609536D01*
X222753536Y-75656035D01*
X221800035Y-77307546D01*
X219264037Y-77307546D01*
X218416405Y-76818165D01*
X217462904Y-78469676D01*
X214926905Y-78469676D01*
X214079275Y-77980296D01*
X213125774Y-79631807D01*
X210589774Y-79631807D01*
X209742144Y-79142427D01*
X208946224Y-80521000D01*
X203815890Y-80521000D01*
X204306893Y-79670558D01*
X203503013Y-79206437D01*
X206039012Y-79206437D01*
X207690523Y-80159938D01*
X208644024Y-78508428D01*
X207840143Y-78044307D01*
X210376143Y-78044307D01*
X212027654Y-78997808D01*
X212981155Y-77346297D01*
X212177274Y-76882176D01*
X214713274Y-76882176D01*
X216364784Y-77835677D01*
X217318285Y-76184166D01*
X216514407Y-75720046D01*
X219050404Y-75720046D01*
X220701915Y-76673547D01*
X221655416Y-75022036D01*
X220851535Y-74557915D01*
X223387535Y-74557915D01*
X225039046Y-75511415D01*
X225172030Y-75281080D01*
X224119585Y-73289966D01*
X223387535Y-74557915D01*
X220851535Y-74557915D01*
X220003905Y-74068535D01*
X219050404Y-75720046D01*
X216514407Y-75720046D01*
X215666775Y-75230665D01*
X214713274Y-76882176D01*
X212177274Y-76882176D01*
X211329644Y-76392796D01*
X210376143Y-78044307D01*
X207840143Y-78044307D01*
X206992513Y-77554927D01*
X206039012Y-79206437D01*
X203503013Y-79206437D01*
X202655383Y-78717057D01*
X201701882Y-80368568D01*
X196571550Y-80368568D01*
X197220132Y-79245189D01*
X196416251Y-78781068D01*
X198952251Y-78781068D01*
X200603762Y-79734569D01*
X201557263Y-78083058D01*
X200753382Y-77618937D01*
X203289382Y-77618937D01*
X204940892Y-78572438D01*
X205894393Y-76920928D01*
X205090513Y-76456807D01*
X207626512Y-76456807D01*
X209278023Y-77410308D01*
X210231524Y-75758797D01*
X209427643Y-75294676D01*
X211963643Y-75294676D01*
X213615154Y-76248177D01*
X214568655Y-74596666D01*
X213764776Y-74132546D01*
X216300774Y-74132546D01*
X217952284Y-75086047D01*
X218905785Y-73434536D01*
X218101905Y-72970415D01*
X220637904Y-72970415D01*
X222289415Y-73923916D01*
X223242916Y-72272405D01*
X221591405Y-71318904D01*
X220637904Y-72970415D01*
X218101905Y-72970415D01*
X217254275Y-72481035D01*
X216300774Y-74132546D01*
X213764776Y-74132546D01*
X212917144Y-73643165D01*
X211963643Y-75294676D01*
X209427643Y-75294676D01*
X208580013Y-74805296D01*
X207626512Y-76456807D01*
X205090513Y-76456807D01*
X204242883Y-75967427D01*
X203289382Y-77618937D01*
X200753382Y-77618937D01*
X199905752Y-77129557D01*
X198952251Y-78781068D01*
X196416251Y-78781068D01*
X195568621Y-78291688D01*
X194615120Y-79943199D01*
X192079120Y-79943199D01*
X191231491Y-79453819D01*
X190615354Y-80521000D01*
X185485020Y-80521000D01*
X185796240Y-79981950D01*
X184992359Y-79517829D01*
X187528359Y-79517829D01*
X189179870Y-80471330D01*
X190133371Y-78819820D01*
X189329490Y-78355699D01*
X191865490Y-78355699D01*
X193517000Y-79309200D01*
X194470501Y-77657689D01*
X193666621Y-77193568D01*
X196202620Y-77193568D01*
X197854131Y-78147069D01*
X198807632Y-76495558D01*
X198003751Y-76031437D01*
X200539751Y-76031437D01*
X202191262Y-76984938D01*
X203144763Y-75333428D01*
X202340882Y-74869307D01*
X204876882Y-74869307D01*
X206528392Y-75822808D01*
X207481893Y-74171297D01*
X206678013Y-73707176D01*
X209214012Y-73707176D01*
X210865523Y-74660677D01*
X211819024Y-73009166D01*
X211015145Y-72545046D01*
X213551143Y-72545046D01*
X215202654Y-73498547D01*
X216156155Y-71847036D01*
X215352274Y-71382915D01*
X217888274Y-71382915D01*
X219539784Y-72336416D01*
X220493285Y-70684905D01*
X218841775Y-69731404D01*
X217888274Y-71382915D01*
X215352274Y-71382915D01*
X214504644Y-70893535D01*
X213551143Y-72545046D01*
X211015145Y-72545046D01*
X210167513Y-72055665D01*
X209214012Y-73707176D01*
X206678013Y-73707176D01*
X205830383Y-73217796D01*
X204876882Y-74869307D01*
X202340882Y-74869307D01*
X201493252Y-74379927D01*
X200539751Y-76031437D01*
X198003751Y-76031437D01*
X197156121Y-75542057D01*
X196202620Y-77193568D01*
X193666621Y-77193568D01*
X192818991Y-76704188D01*
X191865490Y-78355699D01*
X189329490Y-78355699D01*
X188481860Y-77866319D01*
X187528359Y-79517829D01*
X184992359Y-79517829D01*
X184144729Y-79028449D01*
X183283005Y-80521000D01*
X178152672Y-80521000D01*
X178709479Y-79556581D01*
X177905598Y-79092460D01*
X180441598Y-79092460D01*
X182093108Y-80045961D01*
X183046609Y-78394450D01*
X182242729Y-77930329D01*
X184778728Y-77930329D01*
X186430239Y-78883830D01*
X187383740Y-77232320D01*
X186579859Y-76768199D01*
X189115859Y-76768199D01*
X190767370Y-77721700D01*
X191720871Y-76070189D01*
X190916990Y-75606068D01*
X193452990Y-75606068D01*
X195104500Y-76559569D01*
X196058001Y-74908058D01*
X195254121Y-74443937D01*
X197790120Y-74443937D01*
X199441631Y-75397438D01*
X200395132Y-73745928D01*
X199591251Y-73281807D01*
X202127251Y-73281807D01*
X203778762Y-74235308D01*
X204732263Y-72583797D01*
X203928382Y-72119676D01*
X206464382Y-72119676D01*
X208115892Y-73073177D01*
X209069393Y-71421666D01*
X208265515Y-70957546D01*
X210801512Y-70957546D01*
X212453023Y-71911047D01*
X213406524Y-70259536D01*
X212602643Y-69795415D01*
X215138643Y-69795415D01*
X216790154Y-70748916D01*
X217743655Y-69097405D01*
X216939774Y-68633284D01*
X219475774Y-68633284D01*
X221127284Y-69586784D01*
X221667559Y-68650999D01*
X220941601Y-67277565D01*
X220429275Y-66981773D01*
X219475774Y-68633284D01*
X216939774Y-68633284D01*
X216092144Y-68143904D01*
X215138643Y-69795415D01*
X212602643Y-69795415D01*
X211755013Y-69306035D01*
X210801512Y-70957546D01*
X208265515Y-70957546D01*
X207417883Y-70468165D01*
X206464382Y-72119676D01*
X203928382Y-72119676D01*
X203080752Y-71630296D01*
X202127251Y-73281807D01*
X199591251Y-73281807D01*
X198743621Y-72792427D01*
X197790120Y-74443937D01*
X195254121Y-74443937D01*
X194406491Y-73954557D01*
X193452990Y-75606068D01*
X190916990Y-75606068D01*
X190069360Y-75116688D01*
X189115859Y-76768199D01*
X186579859Y-76768199D01*
X185732229Y-76278819D01*
X184778728Y-77930329D01*
X182242729Y-77930329D01*
X181395099Y-77440949D01*
X180441598Y-79092460D01*
X177905598Y-79092460D01*
X177057968Y-78603080D01*
X176104467Y-80254591D01*
X170974133Y-80254591D01*
X171622716Y-79131212D01*
X170818836Y-78667091D01*
X173354836Y-78667091D01*
X175006347Y-79620592D01*
X175959848Y-77969081D01*
X175155967Y-77504960D01*
X177691967Y-77504960D01*
X179343478Y-78458461D01*
X180296979Y-76806950D01*
X179493098Y-76342829D01*
X182029098Y-76342829D01*
X183680608Y-77296330D01*
X184634109Y-75644820D01*
X183830229Y-75180699D01*
X186366228Y-75180699D01*
X188017739Y-76134200D01*
X188971240Y-74482689D01*
X188167359Y-74018568D01*
X190703359Y-74018568D01*
X192354870Y-74972069D01*
X193308371Y-73320558D01*
X192504490Y-72856437D01*
X195040490Y-72856437D01*
X196692000Y-73809938D01*
X197645501Y-72158428D01*
X196841621Y-71694307D01*
X199377620Y-71694307D01*
X201029131Y-72647808D01*
X201982632Y-70996297D01*
X201178751Y-70532176D01*
X203714751Y-70532176D01*
X205366262Y-71485677D01*
X206319763Y-69834166D01*
X205515884Y-69370046D01*
X208051882Y-69370046D01*
X209703392Y-70323547D01*
X210656893Y-68672036D01*
X209853013Y-68207915D01*
X212389012Y-68207915D01*
X214040523Y-69161416D01*
X214994024Y-67509905D01*
X214190143Y-67045784D01*
X216726143Y-67045784D01*
X218377654Y-67999285D01*
X219331155Y-66347774D01*
X217679644Y-65394273D01*
X216726143Y-67045784D01*
X214190143Y-67045784D01*
X213342513Y-66556404D01*
X212389012Y-68207915D01*
X209853013Y-68207915D01*
X209005383Y-67718535D01*
X208051882Y-69370046D01*
X205515884Y-69370046D01*
X204668252Y-68880665D01*
X203714751Y-70532176D01*
X201178751Y-70532176D01*
X200331121Y-70042796D01*
X199377620Y-71694307D01*
X196841621Y-71694307D01*
X195993991Y-71204927D01*
X195040490Y-72856437D01*
X192504490Y-72856437D01*
X191656860Y-72367057D01*
X190703359Y-74018568D01*
X188167359Y-74018568D01*
X187319729Y-73529188D01*
X186366228Y-75180699D01*
X183830229Y-75180699D01*
X182982599Y-74691319D01*
X182029098Y-76342829D01*
X179493098Y-76342829D01*
X178645468Y-75853449D01*
X177691967Y-77504960D01*
X175155967Y-77504960D01*
X174308337Y-77015580D01*
X173354836Y-78667091D01*
X170818836Y-78667091D01*
X169971207Y-78177711D01*
X169017706Y-79829221D01*
X166481706Y-79829221D01*
X165634076Y-79339841D01*
X164952134Y-80521000D01*
X159821801Y-80521000D01*
X160198826Y-79867973D01*
X159394945Y-79403852D01*
X161930944Y-79403852D01*
X163582455Y-80357353D01*
X164535956Y-78705842D01*
X163732075Y-78241721D01*
X166268075Y-78241721D01*
X167919586Y-79195222D01*
X168873087Y-77543712D01*
X168069206Y-77079591D01*
X170605206Y-77079591D01*
X172256716Y-78033092D01*
X173210217Y-76381581D01*
X172406337Y-75917460D01*
X174942336Y-75917460D01*
X176593847Y-76870961D01*
X177547348Y-75219450D01*
X176743467Y-74755329D01*
X179279467Y-74755329D01*
X180930978Y-75708830D01*
X181884479Y-74057320D01*
X181080598Y-73593199D01*
X183616598Y-73593199D01*
X185268108Y-74546700D01*
X186221609Y-72895189D01*
X185417729Y-72431068D01*
X187953728Y-72431068D01*
X189605239Y-73384569D01*
X190558740Y-71733058D01*
X189754859Y-71268937D01*
X192290859Y-71268937D01*
X193942370Y-72222438D01*
X194895871Y-70570928D01*
X194091990Y-70106807D01*
X196627990Y-70106807D01*
X198279500Y-71060308D01*
X199233001Y-69408797D01*
X198429121Y-68944676D01*
X200965120Y-68944676D01*
X202616631Y-69898177D01*
X203570132Y-68246666D01*
X202766253Y-67782546D01*
X205302251Y-67782546D01*
X206953762Y-68736047D01*
X207907263Y-67084536D01*
X207103382Y-66620415D01*
X209639382Y-66620415D01*
X211290892Y-67573916D01*
X212244393Y-65922405D01*
X211440513Y-65458284D01*
X213976512Y-65458284D01*
X215628023Y-66411785D01*
X216581524Y-64760274D01*
X215687330Y-64244010D01*
X214679512Y-64240651D01*
X213976512Y-65458284D01*
X211440513Y-65458284D01*
X210592883Y-64968904D01*
X209639382Y-66620415D01*
X207103382Y-66620415D01*
X206255752Y-66131035D01*
X205302251Y-67782546D01*
X202766253Y-67782546D01*
X201918621Y-67293165D01*
X200965120Y-68944676D01*
X198429121Y-68944676D01*
X197581491Y-68455296D01*
X196627990Y-70106807D01*
X194091990Y-70106807D01*
X193244360Y-69617427D01*
X192290859Y-71268937D01*
X189754859Y-71268937D01*
X188907229Y-70779557D01*
X187953728Y-72431068D01*
X185417729Y-72431068D01*
X184570099Y-71941688D01*
X183616598Y-73593199D01*
X181080598Y-73593199D01*
X180232968Y-73103819D01*
X179279467Y-74755329D01*
X176743467Y-74755329D01*
X175895837Y-74265949D01*
X174942336Y-75917460D01*
X172406337Y-75917460D01*
X171558707Y-75428080D01*
X170605206Y-77079591D01*
X168069206Y-77079591D01*
X167221576Y-76590211D01*
X166268075Y-78241721D01*
X163732075Y-78241721D01*
X162884445Y-77752341D01*
X161930944Y-79403852D01*
X159394945Y-79403852D01*
X158547315Y-78914472D01*
X157619786Y-80521000D01*
X154979902Y-80521000D01*
X154210184Y-80076603D01*
X153256683Y-81728113D01*
X150720683Y-81728113D01*
X149873053Y-81238733D01*
X148919552Y-82890244D01*
X144687386Y-82890244D01*
X142797506Y-81302744D01*
X146169922Y-81302744D01*
X147821433Y-82256245D01*
X148774934Y-80604734D01*
X147971053Y-80140613D01*
X150507052Y-80140613D01*
X152158563Y-81094114D01*
X153112064Y-79442604D01*
X152308183Y-78978483D01*
X154844183Y-78978483D01*
X156495694Y-79931984D01*
X157449195Y-78280473D01*
X156645314Y-77816352D01*
X159181314Y-77816352D01*
X160832825Y-78769853D01*
X161786326Y-77118342D01*
X160982445Y-76654221D01*
X163518444Y-76654221D01*
X165169955Y-77607722D01*
X166123456Y-75956212D01*
X165319575Y-75492091D01*
X167855575Y-75492091D01*
X169507086Y-76445592D01*
X170460587Y-74794081D01*
X169656706Y-74329960D01*
X172192706Y-74329960D01*
X173844216Y-75283461D01*
X174797717Y-73631950D01*
X173993837Y-73167829D01*
X176529836Y-73167829D01*
X178181347Y-74121330D01*
X179134848Y-72469820D01*
X178330967Y-72005699D01*
X180866967Y-72005699D01*
X182518478Y-72959200D01*
X183471979Y-71307689D01*
X182668098Y-70843568D01*
X185204098Y-70843568D01*
X186855608Y-71797069D01*
X187809109Y-70145558D01*
X187005229Y-69681437D01*
X189541228Y-69681437D01*
X191192739Y-70634938D01*
X192146240Y-68983428D01*
X191342359Y-68519307D01*
X193878359Y-68519307D01*
X195529870Y-69472808D01*
X196483371Y-67821297D01*
X195679490Y-67357176D01*
X198215490Y-67357176D01*
X199867000Y-68310677D01*
X200820501Y-66659166D01*
X200016623Y-66195046D01*
X202552620Y-66195046D01*
X204204131Y-67148547D01*
X205157632Y-65497036D01*
X204353751Y-65032915D01*
X206889751Y-65032915D01*
X208541262Y-65986416D01*
X209494763Y-64334904D01*
X209300455Y-64222720D01*
X207361248Y-64216257D01*
X206889751Y-65032915D01*
X204353751Y-65032915D01*
X203506121Y-64543535D01*
X202552620Y-66195046D01*
X200016623Y-66195046D01*
X199168991Y-65705665D01*
X198215490Y-67357176D01*
X195679490Y-67357176D01*
X194831860Y-66867796D01*
X193878359Y-68519307D01*
X191342359Y-68519307D01*
X190494729Y-68029927D01*
X189541228Y-69681437D01*
X187005229Y-69681437D01*
X186157599Y-69192057D01*
X185204098Y-70843568D01*
X182668098Y-70843568D01*
X181820468Y-70354188D01*
X180866967Y-72005699D01*
X178330967Y-72005699D01*
X177483337Y-71516319D01*
X176529836Y-73167829D01*
X173993837Y-73167829D01*
X173146207Y-72678449D01*
X172192706Y-74329960D01*
X169656706Y-74329960D01*
X168809076Y-73840580D01*
X167855575Y-75492091D01*
X165319575Y-75492091D01*
X164471945Y-75002711D01*
X163518444Y-76654221D01*
X160982445Y-76654221D01*
X160134815Y-76164841D01*
X159181314Y-77816352D01*
X156645314Y-77816352D01*
X155797684Y-77326972D01*
X154844183Y-78978483D01*
X152308183Y-78978483D01*
X151460553Y-78489103D01*
X150507052Y-80140613D01*
X147971053Y-80140613D01*
X147123423Y-79651233D01*
X146169922Y-81302744D01*
X142797506Y-81302744D01*
X140907625Y-79715244D01*
X143420291Y-79715244D01*
X145071802Y-80668745D01*
X146025303Y-79017234D01*
X145221422Y-78553113D01*
X147757422Y-78553113D01*
X149408933Y-79506614D01*
X150362434Y-77855104D01*
X149558553Y-77390983D01*
X152094552Y-77390983D01*
X153746063Y-78344484D01*
X154699564Y-76692973D01*
X153895683Y-76228852D01*
X156431683Y-76228852D01*
X158083194Y-77182353D01*
X159036695Y-75530842D01*
X158232814Y-75066721D01*
X160768814Y-75066721D01*
X162420325Y-76020222D01*
X163373826Y-74368712D01*
X162569945Y-73904591D01*
X165105944Y-73904591D01*
X166757455Y-74858092D01*
X167710956Y-73206581D01*
X166907075Y-72742460D01*
X169443075Y-72742460D01*
X171094586Y-73695961D01*
X172048087Y-72044450D01*
X171244206Y-71580329D01*
X173780206Y-71580329D01*
X175431716Y-72533830D01*
X176385217Y-70882320D01*
X175581337Y-70418199D01*
X178117336Y-70418199D01*
X179768847Y-71371700D01*
X180722348Y-69720189D01*
X179918467Y-69256068D01*
X182454467Y-69256068D01*
X184105978Y-70209569D01*
X185059479Y-68558058D01*
X184255598Y-68093937D01*
X186791598Y-68093937D01*
X188443108Y-69047438D01*
X189396609Y-67395928D01*
X188592729Y-66931807D01*
X191128728Y-66931807D01*
X192780239Y-67885308D01*
X193733740Y-66233797D01*
X192929859Y-65769676D01*
X195465859Y-65769676D01*
X197117370Y-66723177D01*
X198070871Y-65071666D01*
X197266992Y-64607546D01*
X199802990Y-64607546D01*
X201454500Y-65561046D01*
X202240768Y-64199188D01*
X200042984Y-64191862D01*
X199802990Y-64607546D01*
X197266992Y-64607546D01*
X196526706Y-64180141D01*
X196383852Y-64179665D01*
X195465859Y-65769676D01*
X192929859Y-65769676D01*
X192082229Y-65280296D01*
X191128728Y-66931807D01*
X188592729Y-66931807D01*
X187745099Y-66442427D01*
X186791598Y-68093937D01*
X184255598Y-68093937D01*
X183407968Y-67604557D01*
X182454467Y-69256068D01*
X179918467Y-69256068D01*
X179070837Y-68766688D01*
X178117336Y-70418199D01*
X175581337Y-70418199D01*
X174733707Y-69928819D01*
X173780206Y-71580329D01*
X171244206Y-71580329D01*
X170396576Y-71090949D01*
X169443075Y-72742460D01*
X166907075Y-72742460D01*
X166059445Y-72253080D01*
X165105944Y-73904591D01*
X162569945Y-73904591D01*
X161722315Y-73415211D01*
X160768814Y-75066721D01*
X158232814Y-75066721D01*
X157385184Y-74577341D01*
X156431683Y-76228852D01*
X153895683Y-76228852D01*
X153048053Y-75739472D01*
X152094552Y-77390983D01*
X149558553Y-77390983D01*
X148710923Y-76901603D01*
X147757422Y-78553113D01*
X145221422Y-78553113D01*
X144373792Y-78063733D01*
X143420291Y-79715244D01*
X140907625Y-79715244D01*
X138862763Y-77997560D01*
X138838581Y-77967905D01*
X138837665Y-77968504D01*
X138834862Y-77964214D01*
X138834860Y-77964209D01*
X138751597Y-77836765D01*
X140838656Y-77836765D01*
X142315796Y-79077563D01*
X142322172Y-79081244D01*
X143275672Y-77429734D01*
X142471791Y-76965613D01*
X145007791Y-76965613D01*
X146659302Y-77919114D01*
X147612803Y-76267604D01*
X146808922Y-75803483D01*
X149344922Y-75803483D01*
X150996433Y-76756984D01*
X151949934Y-75105473D01*
X151146053Y-74641352D01*
X153682052Y-74641352D01*
X155333563Y-75594853D01*
X156287064Y-73943342D01*
X155483183Y-73479221D01*
X158019183Y-73479221D01*
X159670694Y-74432722D01*
X160624195Y-72781212D01*
X159820314Y-72317091D01*
X162356314Y-72317091D01*
X164007825Y-73270592D01*
X164961326Y-71619081D01*
X164157445Y-71154960D01*
X166693444Y-71154960D01*
X168344955Y-72108461D01*
X169298456Y-70456950D01*
X168494575Y-69992829D01*
X171030575Y-69992829D01*
X172682086Y-70946330D01*
X173635587Y-69294820D01*
X172831706Y-68830699D01*
X175367706Y-68830699D01*
X177019216Y-69784200D01*
X177972717Y-68132689D01*
X177168837Y-67668568D01*
X179704836Y-67668568D01*
X181356347Y-68622069D01*
X182309848Y-66970558D01*
X181505967Y-66506437D01*
X184041967Y-66506437D01*
X185693478Y-67459938D01*
X186646979Y-65808428D01*
X185843098Y-65344307D01*
X188379098Y-65344307D01*
X190030608Y-66297808D01*
X190984109Y-64646297D01*
X190180229Y-64182176D01*
X192716227Y-64182176D01*
X194367739Y-65135676D01*
X194922504Y-64174794D01*
X192724719Y-64167468D01*
X192716227Y-64182176D01*
X190180229Y-64182176D01*
X190139831Y-64158852D01*
X189065587Y-64155271D01*
X188379098Y-65344307D01*
X185843098Y-65344307D01*
X184995468Y-64854927D01*
X184041967Y-66506437D01*
X181505967Y-66506437D01*
X180658337Y-66017057D01*
X179704836Y-67668568D01*
X177168837Y-67668568D01*
X176321207Y-67179188D01*
X175367706Y-68830699D01*
X172831706Y-68830699D01*
X171984076Y-68341319D01*
X171030575Y-69992829D01*
X168494575Y-69992829D01*
X167646945Y-69503449D01*
X166693444Y-71154960D01*
X164157445Y-71154960D01*
X163309815Y-70665580D01*
X162356314Y-72317091D01*
X159820314Y-72317091D01*
X158972684Y-71827711D01*
X158019183Y-73479221D01*
X155483183Y-73479221D01*
X154635553Y-72989841D01*
X153682052Y-74641352D01*
X151146053Y-74641352D01*
X150298423Y-74151972D01*
X149344922Y-75803483D01*
X146808922Y-75803483D01*
X145961292Y-75314103D01*
X145007791Y-76965613D01*
X142471791Y-76965613D01*
X141624161Y-76476233D01*
X140838656Y-77836765D01*
X138751597Y-77836765D01*
X138711722Y-77775732D01*
X138711715Y-77775725D01*
X138711715Y-77775723D01*
X138559243Y-77610097D01*
X138559238Y-77610092D01*
X138381577Y-77471812D01*
X138381577Y-77471811D01*
X138338303Y-77448393D01*
X138288713Y-77399173D01*
X138273605Y-77330957D01*
X138297775Y-77265401D01*
X138326198Y-77237763D01*
X138507079Y-77111108D01*
X138674105Y-76944082D01*
X138809600Y-76750578D01*
X138909429Y-76536492D01*
X138909432Y-76536486D01*
X138966636Y-76323000D01*
X138069686Y-76323000D01*
X138095493Y-76282844D01*
X138136000Y-76144889D01*
X138136000Y-76001111D01*
X138095493Y-75863156D01*
X138069686Y-75823000D01*
X138966636Y-75823000D01*
X138966635Y-75822999D01*
X138909432Y-75609513D01*
X138909429Y-75609507D01*
X138809600Y-75395422D01*
X138809599Y-75395420D01*
X138797481Y-75378113D01*
X142258160Y-75378113D01*
X143909671Y-76331614D01*
X144863172Y-74680104D01*
X144059291Y-74215983D01*
X146595291Y-74215983D01*
X148246802Y-75169484D01*
X149200303Y-73517973D01*
X148396422Y-73053852D01*
X150932422Y-73053852D01*
X152583933Y-74007353D01*
X153537434Y-72355842D01*
X152733553Y-71891721D01*
X155269552Y-71891721D01*
X156921063Y-72845222D01*
X157874564Y-71193712D01*
X157070683Y-70729591D01*
X159606683Y-70729591D01*
X161258194Y-71683092D01*
X162211695Y-70031581D01*
X161407814Y-69567460D01*
X163943814Y-69567460D01*
X165595325Y-70520961D01*
X166548826Y-68869450D01*
X165744945Y-68405329D01*
X168280944Y-68405329D01*
X169932455Y-69358830D01*
X170885956Y-67707320D01*
X170082075Y-67243199D01*
X172618075Y-67243199D01*
X174269586Y-68196700D01*
X175223087Y-66545189D01*
X174419206Y-66081068D01*
X176955206Y-66081068D01*
X178606716Y-67034569D01*
X179560217Y-65383058D01*
X178756337Y-64918937D01*
X181292336Y-64918937D01*
X182943847Y-65872438D01*
X183897348Y-64220927D01*
X183752956Y-64137562D01*
X181747322Y-64130877D01*
X181292336Y-64918937D01*
X178756337Y-64918937D01*
X177908707Y-64429557D01*
X176955206Y-66081068D01*
X174419206Y-66081068D01*
X173571576Y-65591688D01*
X172618075Y-67243199D01*
X170082075Y-67243199D01*
X169234445Y-66753819D01*
X168280944Y-68405329D01*
X165744945Y-68405329D01*
X164897315Y-67915949D01*
X163943814Y-69567460D01*
X161407814Y-69567460D01*
X160560184Y-69078080D01*
X159606683Y-70729591D01*
X157070683Y-70729591D01*
X156223053Y-70240211D01*
X155269552Y-71891721D01*
X152733553Y-71891721D01*
X151885923Y-71402341D01*
X150932422Y-73053852D01*
X148396422Y-73053852D01*
X147548792Y-72564472D01*
X146595291Y-74215983D01*
X144059291Y-74215983D01*
X143211661Y-73726603D01*
X142258160Y-75378113D01*
X138797481Y-75378113D01*
X138674113Y-75201926D01*
X138674108Y-75201920D01*
X138507082Y-75034894D01*
X138320968Y-74904575D01*
X138277344Y-74849998D01*
X138270151Y-74780499D01*
X138301673Y-74718145D01*
X138320968Y-74701425D01*
X138507082Y-74571105D01*
X138674105Y-74404082D01*
X138809600Y-74210578D01*
X138909429Y-73996492D01*
X138909432Y-73996486D01*
X138966636Y-73783000D01*
X138069686Y-73783000D01*
X138095493Y-73742844D01*
X138136000Y-73604889D01*
X138136000Y-73461111D01*
X138095493Y-73323156D01*
X138069686Y-73283000D01*
X138966636Y-73283000D01*
X138966635Y-73282999D01*
X138909432Y-73069513D01*
X138909429Y-73069507D01*
X138809600Y-72855422D01*
X138809599Y-72855420D01*
X138713234Y-72717797D01*
X140127920Y-72717797D01*
X140268813Y-73243611D01*
X140270655Y-73299897D01*
X140224287Y-73533000D01*
X140270655Y-73766103D01*
X140268813Y-73822389D01*
X140174327Y-74175011D01*
X141160041Y-74744114D01*
X142113542Y-73092604D01*
X141309661Y-72628483D01*
X143845660Y-72628483D01*
X145497171Y-73581984D01*
X146450672Y-71930473D01*
X145646791Y-71466352D01*
X148182791Y-71466352D01*
X149834302Y-72419853D01*
X150787803Y-70768342D01*
X149983922Y-70304221D01*
X152519922Y-70304221D01*
X154171433Y-71257722D01*
X155124934Y-69606212D01*
X154321053Y-69142091D01*
X156857052Y-69142091D01*
X158508563Y-70095592D01*
X159462064Y-68444081D01*
X158658183Y-67979960D01*
X161194183Y-67979960D01*
X162845694Y-68933461D01*
X163799195Y-67281950D01*
X162995314Y-66817829D01*
X165531314Y-66817829D01*
X167182825Y-67771330D01*
X168136326Y-66119820D01*
X167332445Y-65655699D01*
X169868444Y-65655699D01*
X171519955Y-66609200D01*
X172473456Y-64957689D01*
X171669575Y-64493568D01*
X174205575Y-64493568D01*
X175857086Y-65447068D01*
X176626843Y-64113809D01*
X174429058Y-64106483D01*
X174205575Y-64493568D01*
X171669575Y-64493568D01*
X170979208Y-64094984D01*
X170769925Y-64094286D01*
X169868444Y-65655699D01*
X167332445Y-65655699D01*
X166484815Y-65166319D01*
X165531314Y-66817829D01*
X162995314Y-66817829D01*
X162147684Y-66328449D01*
X161194183Y-67979960D01*
X158658183Y-67979960D01*
X157810553Y-67490580D01*
X156857052Y-69142091D01*
X154321053Y-69142091D01*
X153473423Y-68652711D01*
X152519922Y-70304221D01*
X149983922Y-70304221D01*
X149136292Y-69814841D01*
X148182791Y-71466352D01*
X145646791Y-71466352D01*
X144799161Y-70976972D01*
X143845660Y-72628483D01*
X141309661Y-72628483D01*
X140463798Y-72140124D01*
X140261926Y-72534940D01*
X140224120Y-72579014D01*
X140196552Y-72598922D01*
X140127920Y-72717797D01*
X138713234Y-72717797D01*
X138674113Y-72661926D01*
X138674108Y-72661920D01*
X138507082Y-72494894D01*
X138371977Y-72400292D01*
X138328352Y-72345715D01*
X138321160Y-72276216D01*
X138352682Y-72213862D01*
X138370490Y-72198201D01*
X139160000Y-71628000D01*
X139160000Y-71040983D01*
X141096030Y-71040983D01*
X142747541Y-71994484D01*
X143701042Y-70342973D01*
X142897161Y-69878852D01*
X145433160Y-69878852D01*
X147084671Y-70832353D01*
X148038172Y-69180842D01*
X147234291Y-68716721D01*
X149770291Y-68716721D01*
X151421802Y-69670222D01*
X152375303Y-68018712D01*
X151571422Y-67554591D01*
X154107422Y-67554591D01*
X155758933Y-68508092D01*
X156712434Y-66856581D01*
X155908553Y-66392460D01*
X158444552Y-66392460D01*
X160096063Y-67345961D01*
X161049564Y-65694450D01*
X160245683Y-65230329D01*
X162781683Y-65230329D01*
X164433194Y-66183830D01*
X165386695Y-64532320D01*
X164607061Y-64082197D01*
X167143058Y-64082197D01*
X168770325Y-65021699D01*
X169308579Y-64089415D01*
X167143058Y-64082197D01*
X164607061Y-64082197D01*
X164592333Y-64073694D01*
X163451661Y-64069892D01*
X162781683Y-65230329D01*
X160245683Y-65230329D01*
X159398053Y-64740949D01*
X158444552Y-66392460D01*
X155908553Y-66392460D01*
X155060923Y-65903080D01*
X154107422Y-67554591D01*
X151571422Y-67554591D01*
X150723792Y-67065211D01*
X149770291Y-68716721D01*
X147234291Y-68716721D01*
X146386661Y-68227341D01*
X145433160Y-69878852D01*
X142897161Y-69878852D01*
X142049531Y-69389472D01*
X141096030Y-71040983D01*
X139160000Y-71040983D01*
X139160000Y-68291352D01*
X142683530Y-68291352D01*
X144335041Y-69244853D01*
X145288542Y-67593342D01*
X144484661Y-67129221D01*
X147020660Y-67129221D01*
X148672171Y-68082722D01*
X149625672Y-66431212D01*
X148821791Y-65967091D01*
X151357791Y-65967091D01*
X153009302Y-66920592D01*
X153962803Y-65269081D01*
X153158922Y-64804960D01*
X155694922Y-64804960D01*
X157346433Y-65758461D01*
X158299934Y-64106949D01*
X158205460Y-64052404D01*
X156133397Y-64045498D01*
X155694922Y-64804960D01*
X153158922Y-64804960D01*
X152311292Y-64315580D01*
X151357791Y-65967091D01*
X148821791Y-65967091D01*
X147974161Y-65477711D01*
X147020660Y-67129221D01*
X144484661Y-67129221D01*
X143637031Y-66639841D01*
X142683530Y-68291352D01*
X139160000Y-68291352D01*
X139160000Y-67061866D01*
X140554000Y-67061866D01*
X141585410Y-67657352D01*
X142538911Y-66005842D01*
X141735030Y-65541721D01*
X144271030Y-65541721D01*
X145922541Y-66495222D01*
X146876042Y-64843712D01*
X146072161Y-64379591D01*
X148608160Y-64379591D01*
X150259671Y-65333091D01*
X151012917Y-64028429D01*
X148815132Y-64021104D01*
X148608160Y-64379591D01*
X146072161Y-64379591D01*
X145431710Y-64009826D01*
X145156000Y-64008907D01*
X144271030Y-65541721D01*
X141735030Y-65541721D01*
X140887400Y-65052341D01*
X140554000Y-65629806D01*
X140554000Y-67061866D01*
X139160000Y-67061866D01*
X139160000Y-63954221D01*
X141521399Y-63954221D01*
X143172910Y-64907721D01*
X143694653Y-64004036D01*
X143561898Y-64003594D01*
X143494924Y-63983687D01*
X143488126Y-63978956D01*
X142815906Y-63477060D01*
X142773964Y-63421179D01*
X142771321Y-63413330D01*
X142761386Y-63380214D01*
X142749081Y-63380752D01*
X142743671Y-63380870D01*
X142688329Y-63380870D01*
X142682919Y-63380752D01*
X142638448Y-63378810D01*
X142633051Y-63378456D01*
X142355678Y-63354189D01*
X142350300Y-63353600D01*
X142306176Y-63347791D01*
X142300833Y-63346969D01*
X142246333Y-63337361D01*
X142241023Y-63336305D01*
X142197557Y-63326669D01*
X142192301Y-63325383D01*
X141925703Y-63253947D01*
X141521399Y-63954221D01*
X139160000Y-63954221D01*
X139160000Y-61231514D01*
X139179685Y-61164475D01*
X139196314Y-61143838D01*
X141420584Y-58919568D01*
X141481903Y-58886086D01*
X141551595Y-58891070D01*
X141607528Y-58932942D01*
X141609836Y-58936129D01*
X141654923Y-59000521D01*
X141654924Y-59000522D01*
X142232922Y-58422523D01*
X142256507Y-58502844D01*
G37*
%TD.AperFunction*%
%TA.AperFunction,Conductor*%
G36*
X137886000Y-75637498D02*
G01*
X137778315Y-75588320D01*
X137671763Y-75573000D01*
X137600237Y-75573000D01*
X137493685Y-75588320D01*
X137386000Y-75637498D01*
X137386000Y-73968501D01*
X137493685Y-74017680D01*
X137600237Y-74033000D01*
X137671763Y-74033000D01*
X137778315Y-74017680D01*
X137886000Y-73968501D01*
X137886000Y-75637498D01*
G37*
%TD.AperFunction*%
%TD*%
M02*
