%TF.GenerationSoftware,KiCad,Pcbnew,7.0.11+1*%
%TF.CreationDate,2024-05-02T20:53:07+02:00*%
%TF.ProjectId,Thor_20_backplane,54686f72-5f32-4305-9f62-61636b706c61,0.1*%
%TF.SameCoordinates,Original*%
%TF.FileFunction,Soldermask,Bot*%
%TF.FilePolarity,Negative*%
%FSLAX46Y46*%
G04 Gerber Fmt 4.6, Leading zero omitted, Abs format (unit mm)*
G04 Created by KiCad (PCBNEW 7.0.11+1) date 2024-05-02 20:53:07*
%MOMM*%
%LPD*%
G01*
G04 APERTURE LIST*
G04 Aperture macros list*
%AMRoundRect*
0 Rectangle with rounded corners*
0 $1 Rounding radius*
0 $2 $3 $4 $5 $6 $7 $8 $9 X,Y pos of 4 corners*
0 Add a 4 corners polygon primitive as box body*
4,1,4,$2,$3,$4,$5,$6,$7,$8,$9,$2,$3,0*
0 Add four circle primitives for the rounded corners*
1,1,$1+$1,$2,$3*
1,1,$1+$1,$4,$5*
1,1,$1+$1,$6,$7*
1,1,$1+$1,$8,$9*
0 Add four rect primitives between the rounded corners*
20,1,$1+$1,$2,$3,$4,$5,0*
20,1,$1+$1,$4,$5,$6,$7,0*
20,1,$1+$1,$6,$7,$8,$9,0*
20,1,$1+$1,$8,$9,$2,$3,0*%
G04 Aperture macros list end*
%ADD10C,0.300000*%
%ADD11C,2.850000*%
%ADD12RoundRect,0.249999X0.525001X-0.525001X0.525001X0.525001X-0.525001X0.525001X-0.525001X-0.525001X0*%
%ADD13C,1.550000*%
%ADD14R,1.700000X1.700000*%
%ADD15O,1.700000X1.700000*%
G04 APERTURE END LIST*
D10*
X154057558Y-45599361D02*
X154057558Y-47599361D01*
X154057558Y-47599361D02*
X154724225Y-46170790D01*
X154724225Y-46170790D02*
X155390891Y-47599361D01*
X155390891Y-47599361D02*
X155390891Y-45599361D01*
X156248034Y-46170790D02*
X157200415Y-46170790D01*
X156057558Y-45599361D02*
X156724224Y-47599361D01*
X156724224Y-47599361D02*
X157390891Y-45599361D01*
X157962320Y-45694600D02*
X158248034Y-45599361D01*
X158248034Y-45599361D02*
X158724225Y-45599361D01*
X158724225Y-45599361D02*
X158914701Y-45694600D01*
X158914701Y-45694600D02*
X159009939Y-45789838D01*
X159009939Y-45789838D02*
X159105177Y-45980314D01*
X159105177Y-45980314D02*
X159105177Y-46170790D01*
X159105177Y-46170790D02*
X159009939Y-46361266D01*
X159009939Y-46361266D02*
X158914701Y-46456504D01*
X158914701Y-46456504D02*
X158724225Y-46551742D01*
X158724225Y-46551742D02*
X158343272Y-46646980D01*
X158343272Y-46646980D02*
X158152796Y-46742219D01*
X158152796Y-46742219D02*
X158057558Y-46837457D01*
X158057558Y-46837457D02*
X157962320Y-47027933D01*
X157962320Y-47027933D02*
X157962320Y-47218409D01*
X157962320Y-47218409D02*
X158057558Y-47408885D01*
X158057558Y-47408885D02*
X158152796Y-47504123D01*
X158152796Y-47504123D02*
X158343272Y-47599361D01*
X158343272Y-47599361D02*
X158819463Y-47599361D01*
X158819463Y-47599361D02*
X159105177Y-47504123D01*
X159962320Y-45599361D02*
X159962320Y-47599361D01*
X161105177Y-45599361D02*
X160248034Y-46742219D01*
X161105177Y-47599361D02*
X159962320Y-46456504D01*
D11*
%TO.C,J4*%
X137086000Y-58593000D03*
X227086000Y-58593000D03*
D12*
X221456000Y-60833000D03*
D13*
X218916000Y-60833000D03*
X216376000Y-60833000D03*
X213836000Y-60833000D03*
X211296000Y-60833000D03*
X208756000Y-60833000D03*
X206216000Y-60833000D03*
X203676000Y-60833000D03*
X201136000Y-60833000D03*
X198596000Y-60833000D03*
X196056000Y-60833000D03*
X193516000Y-60833000D03*
X190976000Y-60833000D03*
X188436000Y-60833000D03*
X185896000Y-60833000D03*
X183356000Y-60833000D03*
X180816000Y-60833000D03*
X178276000Y-60833000D03*
X175736000Y-60833000D03*
X173196000Y-60833000D03*
X170656000Y-60833000D03*
X168116000Y-60833000D03*
X165576000Y-60833000D03*
X163036000Y-60833000D03*
X160496000Y-60833000D03*
X157956000Y-60833000D03*
X155416000Y-60833000D03*
X152876000Y-60833000D03*
X150336000Y-60833000D03*
X147796000Y-60833000D03*
X145256000Y-60833000D03*
X142716000Y-60833000D03*
X221456000Y-58293000D03*
X218916000Y-58293000D03*
X216376000Y-58293000D03*
X213836000Y-58293000D03*
X211296000Y-58293000D03*
X208756000Y-58293000D03*
X206216000Y-58293000D03*
X203676000Y-58293000D03*
X201136000Y-58293000D03*
X198596000Y-58293000D03*
X196056000Y-58293000D03*
X193516000Y-58293000D03*
X190976000Y-58293000D03*
X188436000Y-58293000D03*
X185896000Y-58293000D03*
X183356000Y-58293000D03*
X180816000Y-58293000D03*
X178276000Y-58293000D03*
X175736000Y-58293000D03*
X173196000Y-58293000D03*
X170656000Y-58293000D03*
X168116000Y-58293000D03*
X165576000Y-58293000D03*
X163036000Y-58293000D03*
X160496000Y-58293000D03*
X157956000Y-58293000D03*
X155416000Y-58293000D03*
X152876000Y-58293000D03*
X150336000Y-58293000D03*
X147796000Y-58293000D03*
X145256000Y-58293000D03*
X142716000Y-58293000D03*
%TD*%
D11*
%TO.C,J3*%
X149786000Y-84247000D03*
X239786000Y-84247000D03*
D12*
X234156000Y-86487000D03*
D13*
X231616000Y-86487000D03*
X229076000Y-86487000D03*
X226536000Y-86487000D03*
X223996000Y-86487000D03*
X221456000Y-86487000D03*
X218916000Y-86487000D03*
X216376000Y-86487000D03*
X213836000Y-86487000D03*
X211296000Y-86487000D03*
X208756000Y-86487000D03*
X206216000Y-86487000D03*
X203676000Y-86487000D03*
X201136000Y-86487000D03*
X198596000Y-86487000D03*
X196056000Y-86487000D03*
X193516000Y-86487000D03*
X190976000Y-86487000D03*
X188436000Y-86487000D03*
X185896000Y-86487000D03*
X183356000Y-86487000D03*
X180816000Y-86487000D03*
X178276000Y-86487000D03*
X175736000Y-86487000D03*
X173196000Y-86487000D03*
X170656000Y-86487000D03*
X168116000Y-86487000D03*
X165576000Y-86487000D03*
X163036000Y-86487000D03*
X160496000Y-86487000D03*
X157956000Y-86487000D03*
X155416000Y-86487000D03*
X234156000Y-83947000D03*
X231616000Y-83947000D03*
X229076000Y-83947000D03*
X226536000Y-83947000D03*
X223996000Y-83947000D03*
X221456000Y-83947000D03*
X218916000Y-83947000D03*
X216376000Y-83947000D03*
X213836000Y-83947000D03*
X211296000Y-83947000D03*
X208756000Y-83947000D03*
X206216000Y-83947000D03*
X203676000Y-83947000D03*
X201136000Y-83947000D03*
X198596000Y-83947000D03*
X196056000Y-83947000D03*
X193516000Y-83947000D03*
X190976000Y-83947000D03*
X188436000Y-83947000D03*
X185896000Y-83947000D03*
X183356000Y-83947000D03*
X180816000Y-83947000D03*
X178276000Y-83947000D03*
X175736000Y-83947000D03*
X173196000Y-83947000D03*
X170656000Y-83947000D03*
X168116000Y-83947000D03*
X165576000Y-83947000D03*
X163036000Y-83947000D03*
X160496000Y-83947000D03*
X157956000Y-83947000D03*
X155416000Y-83947000D03*
%TD*%
D14*
%TO.C,P8*%
X137636000Y-68453000D03*
D15*
X137636000Y-70993000D03*
X137636000Y-73533000D03*
X137636000Y-76073000D03*
X137636000Y-78613000D03*
X137636000Y-81153000D03*
X137636000Y-83693000D03*
X137636000Y-86233000D03*
%TD*%
M02*
