<?xml version="1.0" encoding="UTF-8" standalone="no"?>
<!-- Created with Inkscape (http://www.inkscape.org/) -->

<svg
   width="210mm"
   height="297mm"
   viewBox="0 0 210 297"
   version="1.1"
   id="svg5"
   xml:space="preserve"
   inkscape:version="1.2.2 (b0a8486541, 2022-12-01)"
   sodipodi:docname="logo.svg"
   xmlns:inkscape="http://www.inkscape.org/namespaces/inkscape"
   xmlns:sodipodi="http://sodipodi.sourceforge.net/DTD/sodipodi-0.dtd"
   xmlns="http://www.w3.org/2000/svg"
   xmlns:svg="http://www.w3.org/2000/svg"><sodipodi:namedview
     id="namedview7"
     pagecolor="#ffffff"
     bordercolor="#000000"
     borderopacity="0.25"
     inkscape:showpageshadow="2"
     inkscape:pageopacity="0.0"
     inkscape:pagecheckerboard="0"
     inkscape:deskcolor="#d1d1d1"
     inkscape:document-units="mm"
     showgrid="false"
     inkscape:zoom="2.8284271"
     inkscape:cx="98.641396"
     inkscape:cy="1091.5961"
     inkscape:window-width="1536"
     inkscape:window-height="796"
     inkscape:window-x="0"
     inkscape:window-y="0"
     inkscape:window-maximized="1"
     inkscape:current-layer="layer1" /><defs
     id="defs2" /><g
     inkscape:label="Capa 1"
     inkscape:groupmode="layer"
     id="layer1"><path
       style="fill:#000000;stroke-width:0.0508053"
       d="m 16.751398,295.7948 c 0.673325,-0.23401 1.538925,-0.20525 2.18418,-0.22051 0.184562,-0.008 0.201858,-0.0207 0.201858,-0.15068 -0.03379,-0.29072 -0.293023,-0.8305 -0.293023,-0.8305 0,0 -1.237546,-1.51831 -1.707887,-2.39061 -0.129995,-0.24402 -0.140433,-0.85365 0.0072,-1.21728 0.08506,-0.11368 0.329589,-0.2032 0.511043,-0.2032 0.213014,0 0.498815,0.10568 0.64381,0.20068 0.207952,0.13628 0.569883,0.51932 0.569883,0.51932 0,0 -0.293938,-0.44308 -0.681697,-0.7786 0,0 -0.208503,-0.13168 -0.340833,-0.19693 -0.200208,-0.0987 -0.440012,-0.0926 -0.440012,-0.0926 -0.487021,0.007 -0.776986,0.10175 -0.943389,0.30915 -0.383266,0.4777 -0.328999,1.05123 0.149749,1.58265 0.140812,0.1563 0.398766,0.45709 0.573236,0.66843 0.174469,0.21135 0.472258,0.5648 0.661746,0.78546 0.603923,0.70328 0.703773,0.93295 0.802239,1.14181 -0.188009,0.0648 -0.559003,0.13371 -1.268775,0.13816 -0.405326,0.002 -0.567868,-0.0197 -0.777682,-0.10624 -0.14589,-0.0602 -0.273505,-0.10052 -0.283594,-0.0895 0.01297,0.34049 0.13096,0.62714 0.269316,0.90911 0.07937,0.1047 0.08893,0.10591 0.162819,0.0207 z m -1.829337,-0.21246 c 0.08385,-0.0282 0.179885,-0.087 0.213388,-0.13081 0.630646,-0.59434 0.893515,-1.13716 1.034666,-1.9016 0.04452,-0.18039 0.04558,-0.38544 0.0044,-0.86022 -0.07636,-0.88158 -0.240575,-1.40235 -0.688016,-1.89061 -0.248974,-0.28316 -0.466721,-0.36556 -0.790168,-0.41323 -0.01344,0.003 -0.244593,-0.011 -0.434139,0.0179 -0.759381,0.24406 -1.349769,0.94644 -1.523701,1.7004 -0.175352,0.78642 -0.105717,1.75258 0.181667,2.39556 0.09112,0.20388 0.274769,0.50405 0.275462,0.53289 0.484942,0.58317 1.003806,0.78234 1.72639,0.54968 z m -0.807652,-0.18099 c -0.246112,-0.21507 -0.512981,-1.23075 -0.663869,-2.15095 -0.06139,-0.90977 0.0998,-2.15179 0.678321,-2.52844 0.290115,-0.14232 0.585513,-0.0479 0.752978,0.0948 0.209988,0.179 0.330617,0.35192 0.49674,1.26812 0.139913,0.77161 0.154669,0.93965 0.137129,1.56025 -0.01886,0.66635 -0.02695,0.71213 -0.193139,1.09219 -0.195373,0.44677 -0.32447,0.59837 -0.603945,0.70928 -0.332314,0.0968 -0.382037,0.0789 -0.60421,-0.0452 z m -4.097411,-2.83252 c 0,0 -0.01503,-1.35734 -0.018889,-1.46334 -0.050743,-0.004 -0.133332,-0.002 -0.133332,-0.002 l -0.024529,1.43949 c -0.2243555,0.32591 -0.6235089,0.81041 -0.7393072,0.92558 -0.1824527,-0.18131 -0.7436746,-0.83973 -0.7436746,-0.83973 -0.00756,-0.201 -0.01705,-1.31024 -0.022312,-1.48743 -0.034653,0.002 -0.1180693,0.002 -0.1627929,-5e-4 l -0.015345,1.51354 c 0.3444528,0.39708 0.6663222,0.79694 0.9506814,1.16215 0.1030273,-0.14398 0.909502,-1.24757 0.909502,-1.24757 z m -2.518466,0.89256 c -0.1273536,0.003 -1.4093164,0.0186 -1.5771795,0.0119 -0.00858,-0.1947 -0.00439,-0.61882 0.00828,-0.86594 0.1928463,0.009 1.3927838,-0.0294 1.5458174,-0.0317 0.00541,-0.0625 0.00889,-0.13733 0.011074,-0.203 -0.1064915,-3.7e-4 -1.4755467,-0.0201 -1.567839,-0.003 -0.00633,-0.16692 -0.013597,-0.80267 -0.022557,-0.97942 0.5054222,0.004 1.4704662,-0.0395 1.6058548,-0.0433 5.363e-4,-0.0535 -0.00613,-0.13297 -0.00725,-0.20741 -0.5577475,0.0126 -1.6736533,0.0306 -1.790417,0.0351 0.00613,0.14967 0.00603,1.56596 -0.00868,2.53211 0.052142,-0.004 1.6675002,-0.0102 1.8076003,-0.006 -0.00613,-0.0986 -7.805e-4,-0.12144 -0.00439,-0.23907 z m 16.265803,-5.12505 c 0.09322,-0.0616 0.201044,-0.20121 0.255144,-0.33037 0.232826,-0.55586 0.01864,-2.75272 -0.393064,-4.03176 -0.183024,-0.56859 -0.197019,-0.51671 0.128254,-0.47544 0.979702,0.12431 2.446016,0.98963 2.881334,1.7004 0.359999,0.58779 0.500061,1.32667 0.338427,1.78536 -0.161463,0.45818 -0.558948,0.71587 -1.0044,0.65111 -0.236073,-0.0343 -0.69398,-0.25864 -0.886667,-0.43433 -0.285779,-0.26062 -0.338381,-0.0828 -0.05522,0.18668 0.379523,0.36114 1.079273,0.59202 1.4567,0.48065 0.243967,-0.072 0.580148,-0.37638 0.70229,-0.63584 0.146222,-0.31063 0.198186,-0.73191 0.144909,-1.17482 -0.05661,-0.47054 -0.380024,-1.22401 -0.671747,-1.56498 -0.385923,-0.45103 -1.290312,-1.08927 -1.864642,-1.3159 -0.778867,-0.30733 -0.754976,-0.30409 -2.315225,-0.31422 -1.096763,-0.007 -1.562034,-0.0302 -1.854504,-0.0919 -0.214732,-0.0454 -0.395312,-0.0774 -0.401289,-0.0713 -0.0058,0.006 0.125787,0.15739 0.292817,0.33612 0.284407,0.30433 0.323817,0.32845 0.6209,0.38011 0.17447,0.0303 0.450278,0.0554 0.612907,0.0556 0.162998,2.1e-4 0.329735,0.0301 0.371556,0.0665 0.179246,0.1562 0.572408,1.90174 0.701949,3.11648 0.0353,0.33103 -0.07891,0.8213 -0.203373,0.87305 -0.256952,0.1069 -0.768903,-0.27722 -1.000698,-0.75075 -0.122529,-0.25029 -0.271834,-0.33373 -0.211677,-0.11827 0.141255,0.50588 0.661785,1.20577 1.107166,1.48864 0.467825,0.29713 0.96977,0.37325 1.248155,0.18932 z m -18.7796966,0.0728 c 0.767341,-0.1249 1.8225178,-0.47919 2.5621448,-0.86028 0.5980507,-0.30816 1.1864421,-0.80334 1.4153806,-1.19119 0.1506982,-0.25534 0.1862805,-0.28481 0.3662548,-0.30342 0.1096391,-0.0112 0.2169643,-0.008 0.2385118,0.008 0.021546,0.0155 0.053154,0.29945 0.070256,0.63112 0.017102,0.33166 0.038484,0.61106 0.047525,0.62088 0.00899,0.0102 0.2234954,0.0416 0.4765466,0.0707 0.253052,0.0291 0.644499,0.10124 0.869882,0.16033 0.225381,0.0591 0.417984,0.0985 0.428009,0.0877 0.01001,-0.011 -0.05871,-0.19581 -0.152738,-0.41096 -0.326885,-0.74795 -0.543147,-1.93849 -0.590819,-3.2525 l -0.03473,-0.95728 -0.7861956,-0.0337 c -0.4324085,-0.0186 -1.0826721,-0.061 -1.4450325,-0.0944 -0.8526374,-0.0785 -1.1579589,-0.0204 -1.426892,0.27098 -0.1564079,0.1695 -0.1835978,0.2333 -0.1835978,0.43076 0,0.27544 0.1238577,0.54773 0.4224101,0.92859 0.2759872,0.3521 0.8813014,0.84382 1.2868817,1.04539 0.1738119,0.0864 0.3251711,0.16374 0.3363566,0.1719 0.046575,0.034 -0.04351,0.0665 -0.4121706,0.14895 -0.7443468,0.1664 -1.3861689,0.45943 -1.7798884,0.81257 -0.923468,0.82829 -2.2960293,1.43334 -3.2515275,1.43334 -0.613959,0 -1.2221388,-0.19267 -1.3360166,-0.42327 -0.058231,-0.11793 -0.2927302,-0.14729 -0.2927302,-0.0367 0,0.038 0.073463,0.14616 0.1632751,0.24048 0.1847666,0.19407 0.668535,0.39542 1.1543997,0.48047 0.2950104,0.0517 1.5789397,0.0669 1.854505,0.0221 z m 4.2165583,-2.86722 c -0.6495311,-0.51606 -1.12391,-1.44787 -0.9970416,-1.95849 0.085671,-0.34479 0.2389594,-0.43582 0.7035309,-0.41777 l 0.3914331,0.0151 0.1333004,1.13713 c 0.07332,0.62543 0.1347388,1.1907 0.1364949,1.25614 0.00439,0.16605 -0.1333474,0.15398 -0.3677065,-0.0322 z m 5.2296263,2.71637 c -0.01947,-0.0582 -0.108516,-0.31998 -0.197879,-0.58179 -0.08936,-0.26181 -0.244055,-0.72592 -0.343771,-1.03135 -0.09972,-0.30543 -0.235804,-0.71736 -0.302415,-0.91539 -0.0666,-0.19801 -0.109496,-0.37262 -0.0953,-0.388 0.01423,-0.0154 0.213918,0.0676 0.443846,0.18437 0.229925,0.11677 0.426916,0.19616 0.437759,0.17644 0.01566,-0.0284 -0.434205,-1.57106 -0.904947,-3.10349 l -0.06498,-0.21157 -0.488026,-0.14103 c -0.789241,-0.22809 -0.781527,-0.33596 -0.08387,1.17291 0.336386,0.72751 0.601209,1.33403 0.588497,1.34781 -0.01266,0.0138 -0.214172,-0.0496 -0.447689,-0.14068 -0.233515,-0.0912 -0.438166,-0.15101 -0.454776,-0.13301 -0.01662,0.0181 0.0046,0.0902 0.04703,0.16049 0.15315,0.25332 1.149045,2.2437 1.446163,2.89029 0.167087,0.36362 0.337993,0.69681 0.379791,0.74044 0.06803,0.071 0.07228,0.0682 0.04059,-0.0265 z m 5.242611,-0.0925 c -4.38e-4,-0.0364 -0.116503,-0.12034 -0.257861,-0.1866 -0.720377,-0.3377 -1.56561,-1.41983 -1.913092,-2.44932 -0.188315,-0.5579 -0.222464,-1.21195 -0.07916,-1.51635 0.13621,-0.28934 0.249991,-0.34964 0.595756,-0.31565 0.325779,0.032 0.782479,0.27249 1.009187,0.53142 0.256647,0.2931 0.464951,1.51155 0.416599,2.43681 l -0.02891,0.55319 0.190161,0.0347 c 0.375508,0.0687 0.907379,0.24102 1.224601,0.39691 0.177674,0.0873 0.335436,0.14532 0.350583,0.12892 0.01518,-0.0164 -0.01202,-0.14159 -0.06048,-0.27817 -0.337145,-0.95102 -0.771566,-2.79038 -1.011661,-4.28338 -0.05476,-0.34057 -0.11198,-0.69636 -0.127148,-0.79066 -0.0155,-0.096 -0.003,-0.20346 0.02817,-0.2442 0.07418,-0.0969 0.06162,-0.10613 -0.726325,-0.53305 -0.36236,-0.19634 -0.816209,-0.44997 -1.008549,-0.56361 -0.192346,-0.11362 -0.384504,-0.20661 -0.427026,-0.20661 -0.137854,0 -0.082,0.10104 0.116552,0.2108 0.270197,0.14939 0.527756,0.40583 0.633179,0.63042 0.04908,0.10457 0.126151,0.39244 0.171264,0.63969 0.0451,0.24726 0.125866,0.62317 0.179459,0.83537 0.05358,0.21219 0.09051,0.4192 0.08209,0.46 -0.01107,0.0534 -0.117641,0.007 -0.381383,-0.16833 -0.533985,-0.35382 -0.923646,-0.49948 -1.423016,-0.53191 -0.365781,-0.0238 -0.451028,-0.0122 -0.634436,0.0862 -0.355597,0.19067 -0.407631,0.3142 -0.403672,0.95831 0.004,0.63581 0.08631,1.0124 0.367386,1.67896 0.272733,0.64679 0.600255,1.14605 1.107016,1.68754 0.501531,0.5359 0.653252,0.63548 1.040443,0.68286 0.144925,0.0177 0.402118,0.066 0.571542,0.10701 0.376094,0.0913 0.39981,0.0919 0.398763,0.009 z m -5.893166,-0.65116 c 0.07285,-0.0789 -0.161668,-0.44644 -0.352115,-0.55174 -0.283639,-0.15682 -0.531564,-0.45056 -0.688245,-0.81546 -0.165719,-0.38593 -0.288449,-0.87724 -0.288449,-1.15469 0,-0.1112 -0.0549,-0.31963 -0.122008,-0.46313 -0.06711,-0.14352 -0.122006,-0.27213 -0.122006,-0.28581 0,-0.0137 0.07138,-0.013 0.158609,0.002 0.153276,0.0256 0.163147,0.0158 0.29348,-0.2916 l 0.134866,-0.31816 -0.132842,-0.29354 c -0.157072,-0.34707 -0.205895,-0.35826 -0.624932,-0.14307 -0.708818,0.36401 -1.031245,1.15859 -0.829605,2.04449 0.215842,0.94831 0.848252,1.70254 1.764741,2.10466 0.31552,0.13845 0.751478,0.22814 0.808497,0.16635 z m 0.994285,-0.12333 c 0.959609,-0.29706 1.404993,-1.09329 1.186542,-2.12123 -0.135626,-0.6382 -0.596175,-1.28962 -1.215906,-1.71977 -0.346732,-0.24069 -0.859658,-0.48671 -0.907225,-0.43516 -0.06212,0.0673 0.131482,0.55243 0.262299,0.65724 0.196171,0.15718 0.389849,0.58214 0.479553,1.05225 0.06567,0.34412 0.06947,0.47597 0.02268,0.78644 -0.06209,0.41203 -0.298513,1.018 -0.416282,1.06697 -0.0415,0.0173 -0.07418,0.0705 -0.07261,0.11827 0.004,0.12141 0.255056,0.6607 0.314379,0.67523 0.02684,0.006 0.182804,-0.0295 0.346584,-0.0802 z m 7.095839,-17.03625 -16.5929375,-0.0403 v 8.60818 H 21.870392 Z m -8.955307,8.2562 c -0.962273,-0.10073 -1.890369,-0.95336 -1.998361,-1.83599 -0.06942,-0.56733 -0.06792,-0.65347 0.01566,-0.90049 0.228732,-0.67598 0.471439,-0.98228 1.153046,-1.45512 0.587164,-0.43183 1.166876,-0.80088 1.732498,-1.18609 0.147678,-0.088 0.250618,-0.15704 0.303627,-0.2416 0.0372,-0.0594 0.04199,-0.13811 -0.0041,-0.22479 -0.05738,-0.10767 -0.188204,-0.12148 -0.292262,-0.12148 l -2.349727,0.0367 v -0.94636 l -0.01076,-1.00084 2.543072,-0.004 c 0.534703,-7e-4 1.170532,0.21912 1.537645,0.58585 0.564013,0.56341 0.966734,1.7008 0.570597,2.41264 -0.147646,0.26532 -0.499025,0.71567 -0.871702,0.99332 -0.445024,0.33155 -1.369874,0.95726 -1.724835,1.27191 -0.06934,0.0614 -0.324526,0.27291 -0.348699,0.40079 -0.02418,0.12789 0.220649,0.18132 0.298642,0.18291 l 2.554058,0.0518 -0.0063,0.14713 c 0,0 -2.344802,-0.0455 -2.624465,-0.0341 -0.281594,0.0115 -0.418247,-0.12843 -0.431285,-0.36428 -0.02005,-0.36271 1.997811,-1.59756 2.205696,-1.76112 0.326534,-0.25692 0.684353,-0.76102 0.814518,-0.96163 0.356735,-0.54976 0.02792,-1.76369 -0.510961,-2.23225 -0.329243,-0.31052 -1.002244,-0.56299 -1.46875,-0.56423 l -2.357045,-0.006 0.0022,0.13847 2.357742,0.005 c 0.455165,10e-4 1.049579,0.30197 1.359681,0.55989 0.544483,0.45284 0.689781,1.48509 0.460981,2.00383 -0.139974,0.31736 -0.455814,0.72432 -0.751848,0.93279 0,0 -1.44109,0.95242 -1.760234,1.18553 -0.205938,0.15044 -0.536068,0.35321 -0.596501,0.64919 -0.06679,0.32717 0.333004,0.594 0.631059,0.59584 l 2.664465,0.0163 0.0044,0.14732 -2.689831,-0.006 c -0.707189,-10e-4 -0.91088,-0.47124 -0.810863,-0.80516 0.0985,-0.32885 0.444112,-0.53984 0.719963,-0.73591 0.620373,-0.44098 1.342704,-0.86438 1.744203,-1.19102 0.356455,-0.29001 0.522917,-0.51973 0.686764,-0.8526 0.202193,-0.41076 0.131006,-1.3277 -0.385663,-1.84482 -0.265167,-0.26542 -0.840695,-0.53047 -1.275124,-0.53385 l -2.357493,-0.0183 1.85e-4,0.23436 2.343255,0.0374 c 0,0 0.631655,0.0236 1.126966,0.44892 0.414073,0.35555 0.600446,1.13681 0.387311,1.62357 -0.240716,0.42873 -0.400961,0.53585 -0.644605,0.75431 -0.528094,0.4735 -1.283206,0.87143 -1.7436,1.18116 -0.453903,0.30485 -0.661129,0.5352 -0.764865,0.85018 -0.152881,0.63363 0.406649,1.06791 0.646248,1.0596 l 1.489228,0.0194 h 1.525047 l -0.03246,1.31343 c 0,0 -2.583681,0.0383 -3.066439,-0.0123 z m -5.5797822,-5.90384 c 0,0 -0.9719613,-10e-4 -1.4737272,-10e-4 0,-0.38971 -0.0046,-1.92992 -0.0046,-1.92992 l 5.1412394,-0.0342 -0.0073,0.1427 -5.0324527,0.004 -0.00225,0.12502 5.0293557,-0.002 0.0015,0.11022 -5.0287096,0.005 -0.00194,0.17835 5.0310446,-0.002 -0.01001,1.31469 -1.6095318,0.0575 -0.078009,5.91185 -0.1074396,0.0102 0.073719,-5.91673 -0.1503979,-0.004 -0.084068,5.93269 -0.090023,-0.003 0.063625,-5.92155 -0.2193426,0.007 -0.033519,5.90129 -1.4121942,-0.009 c 0.01751,-1.94843 0.031128,-3.93448 0.0047,-5.8763 z m 10.6552682,3.82619 c 0.351284,-0.14278 0.719337,-0.44405 1.006788,-0.82412 0.148721,-0.19666 0.418277,-0.46279 0.400957,-1.12185 -0.01722,-0.65503 -0.268727,-0.88327 -0.583474,-1.22986 -0.255191,-0.28099 -0.546674,-0.44427 -0.862859,-0.57028 -0.228192,-0.0909 -0.506594,-0.11081 -0.720415,-0.12372 l -0.627807,-1.4e-4 -0.0079,-1.3637 0.0022,-0.63186 0.15549,-5.3e-4 0.507473,0.003 c 0.335085,0.002 1.014972,0.0761 1.444719,0.25028 0.429744,0.17411 1.175822,0.66662 1.593094,1.2157 0.417274,0.54908 0.951232,1.52889 0.982343,2.38366 0.0333,0.91496 -0.12718,1.79002 -0.737026,2.57129 -0.609847,0.78124 -1.312352,1.29714 -2.028094,1.4531 -0.715745,0.15596 -2.043715,0.0912 -2.043715,0.0912 l -0.0072,-0.12994 c 0,0 1.449219,0.019 1.986005,-0.11311 0.536789,-0.13216 1.464246,-0.68509 1.999529,-1.40517 0.535285,-0.72011 0.72264,-1.60225 0.700259,-2.4656 -0.02169,-0.83651 -0.532855,-1.73834 -0.94747,-2.29093 -0.414616,-0.55258 -1.147112,-1.01672 -1.547819,-1.1859 -0.400711,-0.16917 -1.070327,-0.22088 -1.3904,-0.22389 l -0.469616,-0.004 -7.94e-4,0.11222 0.478238,0.011 c 0.272034,0.006 0.945762,0.0845 1.335399,0.23882 0.389636,0.15445 1.090337,0.5923 1.50331,1.12939 0.412976,0.53708 0.906411,1.42538 0.91174,2.20485 0.0058,0.85338 -0.231642,1.68606 -0.747726,2.33289 -0.516083,0.64683 -1.4155,1.26765 -1.893426,1.39753 -0.477924,0.1299 -1.922787,0.0949 -1.922787,0.0949 l -0.002,-0.12931 c 1.82e-4,5e-5 1.405208,0.0287 1.843892,-0.10569 0.438684,-0.13428 1.361707,-0.72278 1.877522,-1.33413 0.515817,-0.61135 0.741433,-1.43364 0.714027,-2.26135 -0.02427,-0.73338 -0.493713,-1.60056 -0.875508,-2.09241 -0.381799,-0.49188 -1.072617,-0.95344 -1.459277,-1.09488 -0.386661,-0.14143 -1.034227,-0.22122 -1.29329,-0.22082 l -0.481325,7e-4 0.0029,0.19903 0.487929,0.0199 c 0.189369,0.008 0.827791,0.0774 1.202207,0.21056 0.374414,0.13304 1.013041,0.49335 1.423433,0.9655 0.41039,0.47213 0.824311,1.27246 0.829833,2.00489 0.0061,0.82419 -0.191901,1.47537 -0.671436,2.09986 -0.479533,0.62446 -1.403847,1.17373 -1.798331,1.32662 -0.394482,0.15287 -1.806804,0.0988 -1.806804,0.0988 l 0.0049,-1.38687 c 0,0 1.306573,-0.0381 1.532405,-0.10369 5.98e-4,-1.7e-4 -4.7e-5,-0.002 -4.7e-5,-0.002 z"
       id="path362"
       sodipodi:nodetypes="cccccccccccccccccccccccccccccccccccccccccccccccccccccccccccccccccccccccccccccccccccccccccccccccccccccccccccccccccccccccccccccccccccccccccccccccccccccccccccccccccccccccccccccccccccccccccccccccccccccccccccccccccccccccccccccccccssccccsssssssccsssscsccsssssssccssssssscccccaccccccccccccccccccccccccccccccccccccscacccccszzszzcczzszzsccszzszzcczzszzsccszzszzccsc" /></g></svg>
